<svg xmlns="http://www.w3.org/2000/svg" width="210" height="62" viewBox="0 0 210 62">
    <g fill="#FFF" fill-rule="nonzero">
        <path d="M209.617 43.916c-.46.69-.92.92-1.686.92-.537 0-.92-.077-1.457-.077-.076-.46-.076-.766-.23-1.226.537.076.92.076 1.38.076.767.077.92 0 .92-.766v-5.288-2.913h-9.197v7.205c.23-.077.46-.23.536-.46.46-.69.92-1.456 1.38-2.146.23-.46.076-.767-.077-.996-.46-.537-.766-1.227-1.38-1.84.23-.077.537-.23.92-.46.46.46.69.767 1.227 1.38.076-.767.23-1.456.46-2.146h.996c.076.92-.077 1.686-.46 2.452-.077.69-.077.997.23 1.61.23.536.536.996.92 1.61-.46.076-.69.23-.997.46-.23-.46-.536-.767-.69-1.227-.69.92-1.456 2.07-2.146 2.912-.23-.076-.46-.23-.766-.46v2.146h-1.226v-11.19h11.65c-.307 3.526-.307 6.899-.307 10.424zM62.617 44.836c1.61-1.84 3.295-3.372 4.752-5.212 3.065-3.602 5.518-7.204 7.357-11.65 1.227-2.835 2.07-5.518 2.07-8.583.076-6.209-2.3-10.96-7.818-14.103-2.452-1.456-5.288-2.299-8.124-2.835-2.912-.537-5.748-.69-8.814-.537 1.38-.23 2.606-.69 3.986-.766C58.63.69 61.314.46 63.92.613c3.755.077 7.357.767 10.73 2.453 5.441 2.835 8.584 7.127 9.503 13.106.537 3.832 0 7.587-1.226 11.113-2.146 6.208-5.442 11.726-9.81 16.708-.46.46-.767.69-1.456.69h-8.508c-.076.153-.153.153-.536.153zM53.496 16.555c-.23 2.07-.536 3.832-.766 5.671H42.154c-2.07 0-3.373.767-4.523 2.3-1.38 1.686-2.452 3.602-3.755 5.441-.153.077-.153.153-.153.46.46 0 .69.077.996.077h6.438c.46 0 .69 0 1.226.076-.23 1.61-.46 3.143-.69 4.829H31.96c-.996 0-2.07.23-2.606 1.226-1.61 2.3-3.142 4.445-4.599 6.821-.69.997-1.38 1.456-2.605 1.456-1.84-.076-3.832 0-5.672 0h-.996c.23-.46.46-.69.536-.92 3.756-5.67 7.205-11.419 10.96-16.937.69-1.227 1.456-2.3 2.3-3.296 2.145-2.836 4.751-4.828 7.894-6.208 1.686-.69 3.372-.92 5.288-.92h10.193c.077-.076.307-.076.843-.076z"/>
        <path d="M59.015 44.836h-6.592c.46-3.602.92-7.128 1.38-10.654.46-3.602.92-6.974 1.38-10.653h6.59c-.919 7.128-1.839 14.179-2.758 21.307zM44.99 30.657h6.59c-.69 4.752-1.226 9.35-1.84 14.102-2.298.077-4.444 0-6.59 0a474.51 474.51 0 0 1 1.84-14.102zM130.828 44.836c0-.46-.076-.69-.076-.997h1.84v-1.226c-1.457.537-2.913.996-4.446 1.61-.077-.46-.46-.69-.537-.92.92-.23 1.61-.537 2.453-.767-.46-.536-.766-.92-1.226-1.456.23-.076.536-.46.766-.536.537.46.997.92 1.38 1.61.46-.077.92-.46 1.38-.537V40.39h-3.373c0-.46 0-.69-.077-.997h3.603v-.766h-4.522c-.077 2.146-.23 4.445-1.38 6.438-.23-.077-.69-.23-.92-.537.077-.23.077-.536.23-.69.69-1.61.92-3.295.92-4.981v-4.752c1.686-.077 3.296 0 4.982 0v-.537c.23-.076.69-.23.92-.23.076 0 .076.077.076.077.23.766.767.766 1.61.766h3.832v.92h-4.752v.92h3.832c0 .536 0 .996.077 1.61.46 0 .69.076.996.076v.766c-.46 0-.69.077-.996.077 0 .537 0 .996-.077 1.686-1.226.077-2.452 0-3.832.077.077.23.077.536.23.69.077.23.46.46.69.536.46.46.69.46.996 0 .46-.46.766-.69 1.226-.996.077.076.46.23.537.46.076.076.23.076.536.23-.69.536-1.226.92-1.686 1.38.69.536 1.61.689 2.376.995-.077.23-.23.69-.536.92-1.61-.536-2.913-1.38-4.446-2.452v1.456c0 .92-.23 1.226-1.38 1.226-.076.153-.536.077-1.226.077zm1.687-10.117h-4.446v2.606h4.139l.23-.23c0-.077-.077-.23-.23-.23h-3.219v-.996h3.372c.154-.46.154-.767.154-1.15zm1.226 4.522h2.606v-.767h-2.606c.153.23.153.384 0 .767zm1.38-2.53h-.92c-.077 0-.23.077-.46.23.077.077.23.46.46.46h2.07c.076 0 .229-.23.229-.46s-.077-.23-.23-.23h-1.15zM173.672 34.719c-.077.69-.23 1.226-.537 1.686h6.821c-.536 2.376-.996 4.599-1.686 6.975h3.296v.92c-.69.076-11.88.23-12.8 0v-.92c.92-.077 1.84 0 2.836 0h5.672c.076-.69.23-1.227.46-2.07h-6.975c.537-2.3 1.38-4.445 1.84-6.591h-2.606v-.996h11.19c0 .076.076.23.076.46v.536h-7.587zm4.751 2.76h-5.441c-.23.919-.537 1.685-.767 2.835h5.519c.23-.92.383-1.686.69-2.836zM62.77 16.555c-.23 2.07-.536 3.832-.766 5.748-2.3.077-4.522 0-6.822 0 .23-2.07.537-3.985.767-5.748h6.821zM44.99 29.354c.229-2.07.536-3.985.765-5.748h6.822c-.23 2.07-.537 3.832-.767 5.748-2.3.077-4.445 0-6.82 0zM154.588 44.223v-.997h4.215v-9.963h1.226v9.81h1.61v-.92-7.817-.997h1.226v9.964h4.215v.996c-3.985-.076-8.2-.076-12.492-.076zM183.635 34.566c-.23 0-.46-.077-.69-.077v-.92h5.672v.92c-.23 0-.46.077-.69.077v6.59h.766c0 .23.077.537.077.767-.46.077-.69.23-.92.46v2.453h-1.226v-2.3c-1.226.077-2.376.46-3.602.537-.077-.46-.077-.69-.23-.92.23-.076.536-.23.766-.23.077-2.529.077-4.981.077-7.357zm1.38 7.05c.69-.076 1.226-.076 1.686-.23v-1.609h-1.686v1.84zm1.686-5.747v-1.457h-1.686v1.457h1.686zm-1.686 2.759h1.686v-1.456h-1.686v1.456zM98.409 44.912v-4.751c.69-.077 9.273-.23 10.73-.077v4.752c-.46.076-.767.23-1.227-.077-.076-.077-.46-.077-.536-.077h-7.128c-.23 0-.536 0-.69.23-.383 0-.69-.076-1.15 0zm4.598-2.222h-3.602v.766h3.602v-.766zm1.227 0v.766h3.602v-.766h-3.602zm-4.752-.92H103.007c.077-.46.077-.766-.23-.766h-3.295v.766zm8.507-.766h-3.755c0 .23 0 .536.076.69h3.602c.077-.23.077-.46.077-.69zM118.49 43.226h4.828v.997h-11.114v-.997h4.752v-5.518h-5.288v-1.226h5.441V32.88h1.227v3.602h5.518v.996h-5.442c.077 1.993.077 3.832.077 5.748zM140.869 35.102v-.536-.537h11.42v.997h-4.83c-.23.766-.23 6.897 0 7.817h5.52v.996h-12.57v-.996h5.518v-7.817c-1.763.076-3.296.076-5.058.076z"/>
        <path d="M188.923 44.836c-.23-.23-.46-.537-.69-.767 1.61-.92 2.836-2.146 2.913-4.062h-2.453v-.92h2.453c.23-.69.077-1.379.077-2.145h-2.3v-.997h3.143c.46-.766.766-1.61 1.226-2.452.46.076.766.076 1.226.23-.46.766-.766 1.456-1.226 2.146.69 0 1.226.076 1.686.076v.92h-2.606v2.146h3.066v.996h-2.912c.536 1.84 1.609 3.066 3.142 3.986-.46.23-.69.536-.92.766-1.38-.766-2.146-1.84-2.836-3.295-.46 1.456-1.38 2.682-2.989 3.372zM99.635 39.24v-2.375h8.124v2.376h-8.124zm6.974-.766c.077-.536 0-.69-.536-.69h-4.828c-.537 0-.69.23-.46.69h5.824zM203.639 36.482c.23-.23.536-.46.766-.69.46.536.767.996 1.38 1.686.23-.92.46-1.61.536-2.376h.92c.077.92-.077 1.84-.46 2.606-.23.766-.23 1.38.23 2.07.46.536.69 1.226.996 1.839l-.92.92c-.46-.767-.766-1.457-1.226-2.3-.766.92-1.61 1.84-2.376 2.836-.23-.46-.536-.537-.69-.766.69-.92 1.227-1.687 1.84-2.453.46-.536.46-.92 0-1.456-.153-.613-.383-1.303-.996-1.916zM109.675 33.953v2.299h-.996c0-.46-.077-.767-.077-1.38H98.64c0 .46-.077.767-.077 1.38h-.92v-2.3h5.442v-.766c.23-.077.69-.077.92-.23.23.46.46.69.69.92 1.456.077 3.295.077 4.981.077z"/>
        <path d="M99.175 36.252v-.69c.69-.077 7.588-.23 8.737 0v.69h-8.737zM163.631 40.85c.69-1.84 1.38-3.602 2.07-5.288.23.077.69.077.996.23-.46 2.07-1.226 3.755-2.146 5.442-.46-.154-.69-.23-.92-.384zM157.883 40.85c-.46.077-.766.23-1.226.23-.537-1.686-.996-3.372-1.61-5.211.23-.077.69-.23.997-.46.996 1.916 1.456 3.679 1.84 5.441zM189.613 33.263c.46-.077.69-.23.996-.46.23.69.69 1.38.997 2.146-.537.077-.767.23-1.226.46-.154-.69-.537-1.303-.767-2.146zM21.843 16.555c-.23.46-.536.536-.69.69-4.062 4.062-7.664 8.583-10.27 13.795-1.456 2.836-2.452 5.518-2.912 8.584-.46 3.526 0 6.975 1.686 10.27 1.226 2.376 3.066 4.215 5.288 5.672 2.606 1.61 5.442 2.606 8.508 3.142 2.605.46 5.211.69 7.817.537.23 0 .69 0 .92.076-.997.23-2.146.537-3.296.69-3.066.536-6.208.766-9.274.536-4.521-.23-8.813-1.456-12.569-4.215C3.45 53.42 1.38 49.894.613 45.372c-.92-4.292-.23-8.354 1.226-12.34 2.146-5.977 5.289-11.189 9.35-15.94.46-.537.92-.767 1.61-.69h8.048c.46.153.613.153.996.153zM97.49 27.821h3.984v-4.445h7.588V21.23h-7.588v-2.606h8.125v-2.376h-8.508c-1.456 0-3.602 2.07-3.602 3.602v7.971zM117.493 16.555c-1.38 0-3.602 2.146-3.602 3.295v4.752c0 1.38 2.299 3.296 3.295 3.296h7.894c.92 0 3.143-1.84 3.143-3.296V20.08c0-1.456-2.07-3.372-3.296-3.372l-7.434-.153zm.306 2.452h6.592s.076 6.208 0 6.362c-.077.076-6.592 0-6.592 0v-6.362zM130.369 16.325h4.522l2.452 3.066 2.836-3.066h4.752l-4.982 5.748 4.828 5.672h-4.522l-2.912-3.143-2.606 3.143h-4.752l4.982-5.672zM158.42 19.16h-8.354v6.362h8.354v2.452h-8.354c-.767 0-3.756-1.839-3.756-3.295v-4.752c0-.996 2.376-3.296 3.756-3.296h8.354v2.53zM179.113 27.821h4.062v-8.814h6.438v8.814h3.832v-7.664c0-1.456-1.84-3.832-3.755-3.832h-10.654V27.82h.077zM166.314 16.555c-1.38 0-3.602 2.146-3.602 3.295v4.752c0 1.38 2.299 3.296 3.295 3.296h7.894c.92 0 3.143-1.84 3.143-3.296V20.08c0-1.456-2.07-3.372-3.296-3.372l-7.434-.153zm.46 2.452h6.591s.077 6.208 0 6.362c-.077.23-6.591 0-6.591 0v-6.362zM195.285 27.821h4.062v-8.814h6.438v8.814h3.832v-7.664c0-1.456-1.84-3.832-3.756-3.832h-10.653V27.82h.077z"/>
    </g>
</svg>
