<?xml version="1.0" encoding="UTF-8"?>
<svg width="26px" height="26px" viewBox="0 0 26 26" version="1.1" xmlns="http://www.w3.org/2000/svg" xmlns:xlink="http://www.w3.org/1999/xlink">
    <title>ic-fire</title>
    <defs></defs>
    <g id="Page-1" stroke="none" stroke-width="1" fill="none" fill-rule="evenodd">
        <g id="Artboard-6">
            <g id="fire" transform="translate(2.000000, 0.000000)">
                <path d="M9.43969476,1.06289308 L9.03088973,1.47169811 C8.54032369,2.04402516 8.04975765,2.53459119 7.55919162,3.10691824 C7.15038658,3.51572327 6.74158155,4.00628931 6.33277652,4.41509434 C5.26988344,5.55974843 4.20699036,6.62264151 3.30761929,7.8490566 C1.01831111,10.6289308 0.20070105,13.8176101 0.8547891,17.2515723 C2.08120419,23.3018868 7.23214759,26 11.8925249,26 L11.974286,26 C12.791896,26 13.6912671,25.836478 14.5906382,25.591195 C17.3705124,24.6918239 19.6598205,22.8930818 21.2132797,20.2767296 C22.1944117,18.5597484 22.6849778,16.4339623 22.5214558,14.3899371 C22.1944117,11.3647799 21.0497577,8.91194969 19.0057325,6.94968553 C18.5151665,6.62264151 18.1063614,6.37735849 17.6975564,6.37735849 C17.0434683,6.37735849 16.6346633,6.94968553 16.5529023,7.8490566 C16.4711413,8.42138365 16.5529023,9.0754717 16.5529023,9.64779874 L16.5529023,10.1383648 C16.6346633,10.8742138 16.6346633,11.6100629 16.6346633,12.1823899 C16.5529023,13.163522 15.9805753,13.8993711 15.0812042,14.3081761 C14.1818331,14.6352201 13.200701,14.5534591 12.546613,13.8993711 C11.7290029,13.081761 11.4837199,12.1823899 11.7290029,11.2012579 C11.8925249,10.7106918 12.056047,10.3018868 12.383091,9.72955975 C13.2824621,8.25786164 13.6912671,7.03144654 13.7730281,5.72327044 C13.9365501,3.9245283 13.4459841,2.37106918 12.546613,0.899371069 C12.219569,0.327044025 11.6472419,0 11.0749149,0 C10.9931539,0 10.8296319,0 10.7478709,0 C10.1755438,0.245283019 9.84849979,0.65408805 9.43969476,1.06289308 Z M11.2384369,3.02515723 C11.6472419,4.08805031 11.8107639,5.1509434 11.5654809,6.29559748 C11.4019589,7.19496855 10.9931539,7.93081761 10.6661099,8.66666667 L10.5843488,8.74842767 C10.2573048,9.40251572 9.84849979,10.0566038 9.68497778,10.7924528 C9.43969476,11.4465409 9.35793375,12.2641509 9.52145577,12.918239 C9.84849979,14.9622642 11.6472419,16.4339623 13.9365501,16.4339623 C15.2447262,16.4339623 16.4711413,15.9433962 17.2887514,15.0440252 C17.8610784,14.4716981 18.1881224,13.6540881 18.3516444,12.836478 C18.4334055,12.427673 18.4334055,11.9371069 18.4334055,11.6100629 C18.4334055,11.5283019 18.4334055,11.4465409 18.4334055,11.3647799 C18.3516444,11.0377358 18.3516444,10.7106918 18.5969275,10.4654088 C18.6786885,10.3836478 18.7604495,10.3836478 18.8422105,10.3836478 C19.0874935,10.3836478 19.1692545,10.5471698 19.2510155,10.7106918 C21.0497577,14.0628931 20.9679966,17.3333333 18.9239715,20.2767296 C17.2069904,22.8113208 14.7541602,24.1194969 11.7290029,24.2012579 C11.6472419,24.2012579 11.4837199,24.2012579 11.4019589,24.2012579 C7.15038658,24.2012579 3.4711413,21.1761006 2.65353124,16.9245283 C2.1629652,14.3081761 2.73529224,11.9371069 4.20699036,9.81132075 C5.02460042,8.74842767 5.92397149,7.68553459 6.82334256,6.62264151 C7.72271363,5.64150943 8.6220847,4.66037736 9.52145577,3.76100629 L10.3390658,2.86163522 C10.4208268,2.77987421 10.5843488,2.69811321 10.6661099,2.69811321 C11.0749149,2.69811321 11.2384369,2.86163522 11.2384369,3.02515723 Z" id="Shape" fill="#C4EBFF" fill-rule="nonzero"></path>
                <rect id="Rectangle-2" x="2" y="2" width="25" height="25"></rect>
            </g>
        </g>
    </g>
</svg>