<?xml version="1.0" encoding="UTF-8"?>
<svg width="35px" height="35px" viewBox="0 0 35 35" version="1.1" xmlns="http://www.w3.org/2000/svg" xmlns:xlink="http://www.w3.org/1999/xlink">
    <!-- Generator: Sketch 48.2 (47327) - http://www.bohemiancoding.com/sketch -->
    <title>Artboard 3</title>
    <desc>Created with Sketch.</desc>
    <defs></defs>
    <g id="Page-1" stroke="none" stroke-width="1" fill="none" fill-rule="evenodd">
        <g id="Artboard-3" fill-rule="nonzero">
            <g id="火警钟-135px">
                <circle id="Oval-9" fill="#FFFFFF" cx="17.5" cy="17.5" r="17.5"></circle>
                <g id="火警鐘-01" transform="translate(8.037037, 7.259259)" fill="#83D9FF">
                    <path d="M17.241198,12.7992231 C17.1032685,12.7301664 16.8963741,12.6611098 16.8963741,12.5920531 C16.6894797,12.4539397 16.4825853,12.1086564 16.4825853,11.6943163 C16.4825853,11.556203 16.5515501,11.3490329 16.6205149,11.1418629 C16.6205149,11.0037496 16.6894797,10.9346929 16.6894797,10.7965795 L16.7584445,10.5894095 C16.7584445,10.4512962 16.8274093,10.2441261 16.8274093,10.1060128 C16.8963741,9.7607294 16.8963741,9.41544603 16.8963741,9.13921934 C16.8963741,7.48185913 16.3446558,5.8935556 15.3101839,4.58147879 C14.7584655,3.82185536 13.9998528,3.2003453 13.1722753,2.71694855 C12.7584866,2.44072186 12.3446978,2.23355183 11.930909,2.09543848 C11.7929795,1.61204176 11.5171203,1.12864503 11.1722963,0.783361657 C10.4826484,0.0237382322 9.24128217,-0.183431793 8.27577507,0.161851582 C7.51716236,0.507134958 6.89647923,1.19770171 6.68958484,2.02638181 C6.2757961,2.23355183 5.86200733,2.44072186 5.44821859,2.71694855 C4.62064107,3.13128861 3.93099316,3.75279867 3.37927481,4.51242211 C2.34480293,5.82449894 1.7930846,7.41280247 1.7930846,9.07016266 C1.7930846,9.41544603 1.7930846,9.69167274 1.86204939,10.0369561 C1.86204939,10.1750695 1.93101418,10.3822395 1.93101418,10.5203528 L1.99997897,10.7275229 C1.99997897,10.8656362 2.06894377,10.9346929 2.06894377,11.0728062 C2.13790856,11.2799763 2.20687335,11.4871463 2.20687335,11.6252596 C2.20687335,12.0395997 1.99997897,12.3848831 1.7930846,12.5229964 C1.7241198,12.5920531 1.51722543,12.6611098 1.44826064,12.7301664 C0.965507091,13.0063931 0,13.4207332 0,14.5946967 L0,15.9067735 C0,16.8045103 0.758612714,17.5641337 1.65515501,17.5641337 L6.13786652,17.5641337 C6.13786652,19.3596072 7.58612714,20.7407407 9.31024694,20.7407407 C11.0343668,20.7407407 12.4136626,19.3596072 12.4826274,17.6331904 L17.0343037,17.6331904 C17.930846,17.6331904 18.6894587,16.8735669 18.6894587,15.9758302 L18.6894587,14.6637533 C18.6894587,13.4897899 17.7239516,13.0063931 17.241198,12.7992231 Z M9.31024694,18.9452672 C8.55163423,18.9452672 7.9309511,18.3237571 7.8619863,17.6331904 L10.7585076,17.6331904 C10.6895428,18.3928138 10.0688597,18.9452672 9.31024694,18.9452672 Z M16.7584445,15.6996035 L1.86204939,15.6996035 L1.86204939,14.8018667 C1.93101418,14.73281 2.13790856,14.6637533 2.20687335,14.5946967 C2.48273252,14.4565833 2.75859168,14.31847 3.03445084,14.1112999 C3.72409878,13.4897899 4.13788752,12.6611098 4.13788752,11.763373 C4.13788752,11.3490329 4.06892274,11.0037496 3.99995794,10.7275229 C3.99995794,10.6584662 3.93099316,10.5203528 3.93099316,10.4512962 L3.86202836,10.2441261 C3.86202836,10.1060128 3.79306358,9.96789943 3.79306358,9.89884277 C3.72409878,9.62261606 3.72409878,9.41544603 3.72409878,9.208276 C3.72409878,8.03431253 4.13788752,6.79129238 4.89650026,5.8935556 C5.310289,5.3411022 5.86200733,4.85770548 6.48269046,4.51242211 C6.75854965,4.37430876 7.10337359,4.16713873 7.37923278,4.09808205 C7.44819756,4.09808205 7.44819756,4.09808205 7.51716236,4.09808205 C8.13784549,3.9599687 8.55163423,3.54562867 8.62059904,2.99317527 L8.62059904,2.92411858 C8.68956381,2.57883521 8.8964582,2.30260851 9.10335256,2.23355183 C9.31024694,2.16449516 9.72403571,2.23355183 9.8619653,2.37166518 C9.93093007,2.30260851 9.99989488,2.57883521 10.0688597,2.78600524 C10.1378245,3.33845864 10.4826484,3.75279867 11.1722963,3.89091204 C11.1722963,3.89091204 11.2412611,3.89091204 11.2412611,3.89091204 C11.5860851,4.02902539 11.8619443,4.16713873 12.1378034,4.30525208 C12.7584866,4.65053545 13.2412401,5.1339322 13.7239937,5.68638557 C14.4826064,6.65317904 14.8963951,7.8271425 14.8963951,9.001106 C14.8963951,9.208276 14.8963951,9.48450271 14.8274303,9.69167274 C14.8274303,9.82978609 14.7584655,9.96789943 14.7584655,10.0369561 L14.6895008,10.3822395 C14.6895008,10.4512962 14.6205359,10.5894095 14.6205359,10.6584662 C14.5515711,10.9346929 14.4826064,11.2799763 14.4826064,11.6943163 C14.4826064,12.5920531 14.8963951,13.4207332 15.586043,14.0422433 C15.8619022,14.2494133 16.1377614,14.3875266 16.4136206,14.52564 C16.5515501,14.5946967 16.6894797,14.6637533 16.7584445,14.73281 L16.7584445,15.6996035 Z" id="Shape"></path>
                    <path d="M11.1277513,7.4298405 C10.8516474,7.4298405 10.4374914,7.63981426 10.4374914,8.19974426 C10.4374914,8.33972676 10.4374914,8.47970926 10.4374914,8.61969176 L10.4374914,8.96964802 C10.4374914,9.17962179 10.4374914,9.38959552 10.4374914,9.59956929 C10.4374914,9.73955179 10.3684654,9.87953429 10.1613875,9.94952555 C10.0233355,10.0195168 9.81625753,10.0195168 9.74723154,9.87953429 C9.60917956,9.73955179 9.54015357,9.52957802 9.60917956,9.38959552 C9.67820555,9.24961302 9.67820555,9.17962179 9.74723154,9.03963929 C10.0233355,8.54970052 10.2304135,8.05976176 10.2304135,7.63981426 C10.2994394,7.009893 10.1613875,6.449963 9.81625753,5.89003297 C9.60917956,5.61006797 9.40210159,5.47008547 9.05697165,5.47008547 L8.98794566,5.47008547 C8.7118417,5.47008547 8.50476374,5.68005923 8.36671176,5.82004173 L8.22865978,5.96002423 C8.15963379,6.03001547 8.0906078,6.10000673 8.02158181,6.23998923 C7.88352986,6.30998047 7.81450387,6.37997173 7.74547789,6.449963 C7.6764519,6.51995423 7.60742591,6.5899455 7.53839992,6.65993673 C7.46937393,6.729928 7.40034794,6.79991923 7.33132195,6.8699105 C7.26229596,7.009893 7.12424399,7.07988423 6.98619201,7.21986676 C6.77911404,7.49983176 6.57203607,7.7098055 6.36495811,7.98977052 C5.60567223,8.96964802 5.32956827,10.0195168 5.53664624,11.2793593 C5.95080217,13.3790968 7.74547789,14.3589744 9.3330756,14.3589744 C9.60917956,14.3589744 9.9543095,14.2889831 10.2304135,14.2189919 C11.1967773,13.9390269 11.9560632,13.3091056 12.5082711,12.3992193 C12.853401,11.8392893 12.991453,11.0693855 12.991453,10.2994818 C12.922427,9.24961302 12.5082711,8.40971802 11.7489852,7.7098055 C11.5419072,7.49983176 11.3348293,7.4298405 11.1277513,7.4298405 Z M9.19502363,13.0991318 C8.02158181,13.0991318 7.055218,12.2592368 6.77911404,11.0693855 C6.64106206,10.369473 6.77911404,9.73955179 7.19326997,9.10963052 C7.40034794,8.82966552 7.6764519,8.47970926 7.95255583,8.19974426 L8.02158181,8.12975302 C8.22865978,7.91977926 8.36671176,7.7098055 8.57378973,7.49983176 L8.91891967,7.1498755 C8.91891967,7.35984926 8.91891967,7.49983176 8.91891967,7.7098055 C8.91891967,7.91977926 8.78086769,8.12975302 8.7118417,8.26973552 L8.64281571,8.33972676 C8.50476374,8.54970052 8.36671176,8.75967426 8.29768577,9.03963929 C8.22865978,9.31960429 8.15963379,9.59956929 8.22865978,9.87953429 C8.36671176,10.7194293 9.05697165,11.2793593 9.9543095,11.2793593 C10.4374914,11.2793593 10.9206733,11.0693855 11.2658033,10.7194293 C11.4038553,10.5794468 11.5419072,10.369473 11.6109332,10.089508 C11.7489852,10.7194293 11.6109332,11.3493506 11.2658033,11.9092806 C10.7826214,12.6091931 10.0923615,12.9591493 9.3330756,13.0291406 L9.19502363,13.0291406 L9.19502363,13.0991318 Z" id="Shape"></path>
                </g>
            </g>
        </g>
    </g>
</svg>