<?xml version="1.0" encoding="UTF-8"?>
<svg width="108px" height="108px" viewBox="0 0 108 108" version="1.1" xmlns="http://www.w3.org/2000/svg" xmlns:xlink="http://www.w3.org/1999/xlink">
    <!-- Generator: Sketch 48.2 (47327) - http://www.bohemiancoding.com/sketch -->
    <title>Artboard 8</title>
    <desc>Created with Sketch.</desc>
    <defs>
        <linearGradient x1="94.3373843%" y1="73.7528935%" x2="35.546875%" y2="50%" id="linearGradient-1">
            <stop stop-color="#77ACFF" offset="0%"></stop>
            <stop stop-color="#A887FF" offset="100%"></stop>
        </linearGradient>
        <circle id="path-2" cx="51" cy="51" r="51"></circle>
        <filter x="-14.2%" y="-12.3%" width="128.4%" height="128.4%" filterUnits="objectBoundingBox" id="filter-3">
            <feOffset dx="0" dy="2" in="SourceAlpha" result="shadowOffsetOuter1"></feOffset>
            <feGaussianBlur stdDeviation="4.5" in="shadowOffsetOuter1" result="shadowBlurOuter1"></feGaussianBlur>
            <feColorMatrix values="0 0 0 0 0.584313725   0 0 0 0 0.584313725   0 0 0 0 1  0 0 0 0.698935688 0" type="matrix" in="shadowBlurOuter1"></feColorMatrix>
        </filter>
    </defs>
    <g id="Page-1" stroke="none" stroke-width="1" fill="none" fill-rule="evenodd">
        <g id="Artboard-8">
            <g id="Group-11" transform="translate(3.000000, 3.000000)">
                <g id="Group-22">
                    <g id="Oval-9">
                        <use fill="black" fill-opacity="1" filter="url(#filter-3)" xlink:href="#path-2"></use>
                        <use fill="url(#linearGradient-1)" fill-rule="evenodd" xlink:href="#path-2"></use>
                    </g>
                </g>
                <path d="M77.6466847,60.414612 C77.6466847,61.9199979 76.4166467,63.1500359 74.9112608,63.1500359 C73.4058749,63.1500359 72.17358,61.9199979 72.17358,60.414612 L72.17358,41.268902 C72.17358,39.765773 73.4058749,38.5334781 74.9112608,38.5334781 C76.4166467,38.5334781 77.6466847,39.765773 77.6466847,41.268902 L77.6466847,60.414612 Z M65.851862,60.414612 C65.851862,61.9199979 64.621824,63.1500359 63.1164381,63.1500359 C61.6110522,63.1500359 60.3810143,61.9199979 60.3810143,60.414612 L60.3810143,41.268902 C60.3810143,39.765773 61.6110522,38.5334781 63.1164381,38.5334781 C64.621824,38.5334781 65.851862,39.765773 65.851862,41.268902 L65.851862,60.414612 Z M54.0570393,60.414612 C54.0570393,61.9199979 52.8247444,63.1500359 51.3193585,63.1500359 C49.8162295,63.1500359 48.5861916,61.9199979 48.5861916,60.414612 L48.5861916,41.268902 C48.5861916,39.765773 49.8162295,38.5334781 51.3193585,38.5334781 C52.8247444,38.5334781 54.0570393,39.765773 54.0570393,41.268902 L54.0570393,60.414612 Z M42.2622166,60.414612 C42.2622166,61.9199979 41.0299217,63.1500359 39.5267927,63.1500359 C38.0214068,63.1500359 36.7891119,61.9199979 36.7891119,60.414612 L36.7891119,41.268902 C36.7891119,39.765773 38.0214068,38.5334781 39.5267927,38.5334781 C41.0299217,38.5334781 42.2622166,39.765773 42.2622166,41.268902 L42.2622166,60.414612 Z M30.4673939,60.414612 C30.4673939,61.9199979 29.235099,63.1500359 27.73197,63.1500359 C26.2265841,63.1500359 24.9942892,61.9199979 24.9942892,60.414612 L24.9942892,41.268902 C24.9942892,39.765773 26.2265841,38.5334781 27.73197,38.5334781 C29.235099,38.5334781 30.4673939,39.765773 30.4673939,41.268902 L30.4673939,60.414612 Z M82.0748213,31.487279 L19.9251787,31.487279 C18.8666689,31.487279 18,32.351691 18,33.4124577 L18,68.2687994 C18,69.329566 18.8666689,70.196235 19.9251787,70.196235 L82.0748213,70.196235 C83.135588,70.196235 84,69.329566 84,68.2687994 L84,33.4124577 C84,32.351691 83.135588,31.487279 82.0748213,31.487279 Z" id="Page-1" fill="#FFFFFF"></path>
            </g>
        </g>
    </g>
</svg>