<?xml version="1.0" encoding="UTF-8"?>
<svg width="108px" height="108px" viewBox="0 0 108 108" version="1.1" xmlns="http://www.w3.org/2000/svg" xmlns:xlink="http://www.w3.org/1999/xlink">
    <!-- Generator: Sketch 48.2 (47327) - http://www.bohemiancoding.com/sketch -->
    <title>Artboard 8</title>
    <desc>Created with Sketch.</desc>
    <defs>
        <linearGradient x1="94.3373843%" y1="73.7528935%" x2="35.546875%" y2="50%" id="linearGradient-1">
            <stop stop-color="#77ACFF" offset="0%"></stop>
            <stop stop-color="#A887FF" offset="100%"></stop>
        </linearGradient>
        <circle id="path-2" cx="51" cy="51" r="51"></circle>
        <filter x="-14.2%" y="-12.3%" width="128.4%" height="128.4%" filterUnits="objectBoundingBox" id="filter-3">
            <feOffset dx="0" dy="2" in="SourceAlpha" result="shadowOffsetOuter1"></feOffset>
            <feGaussianBlur stdDeviation="4.5" in="shadowOffsetOuter1" result="shadowBlurOuter1"></feGaussianBlur>
            <feColorMatrix values="0 0 0 0 0.584313725   0 0 0 0 0.584313725   0 0 0 0 1  0 0 0 0.698935688 0" type="matrix" in="shadowBlurOuter1"></feColorMatrix>
        </filter>
    </defs>
    <g id="Page-1" stroke="none" stroke-width="1" fill="none" fill-rule="evenodd">
        <g id="Artboard-8">
            <g id="Group-22" transform="translate(3.000000, 3.000000)">
                <g id="Oval-9">
                    <use fill="black" fill-opacity="1" filter="url(#filter-3)" xlink:href="#path-2"></use>
                    <use fill="url(#linearGradient-1)" fill-rule="evenodd" xlink:href="#path-2"></use>
                </g>
            </g>
            <g id="noise" transform="translate(22.000000, 24.000000)" fill="#FFFFFF">
                <g id="圖層_1">
                    <g id="Group">
                        <path d="M40.8,0.998376623 C40.2,0.599025974 39.4,0.399350649 38.8,0.399350649 C37.4,0.399350649 36.2,1.19805195 35.2,1.79707792 L30.8,4.79220779 C25.8,7.98701299 20.8,11.1818182 15.8,14.5762987 C13.8,15.974026 12,16.5730519 10,16.5730519 L9.6,16.5730519 C8.2,16.5730519 6.8,16.5730519 5.4,16.7727273 C2.6,17.1720779 0.4,19.1688312 0.4,21.9642857 C0.2,27.1558442 0.2,32.7467532 0.4,38.3376623 C0.4,40.9334416 2.4,43.1298701 5.4,43.5292208 C6.2,43.7288961 7.2,43.7288961 8.4,43.7288961 L9.6,43.7288961 C11.8,43.7288961 13.8,44.3279221 15.6,45.525974 C20.8,48.9204545 26.2,52.3149351 31.4,55.7094156 L32.6,56.5081169 C34,57.3068182 35.2,58.3051948 36.6,58.9042208 C37.2,59.3035714 38,59.5032468 38.8,59.5032468 C41,59.5032468 42.6,57.9058442 42.8,55.5097403 L42.8,54.112013 L42.8,53.7126623 L42.8,35.9415584 L42.8,23.7613636 L42.8,6.58928571 L42.8,6.18993506 C43,4.39285714 43,2.19642857 40.8,0.998376623 L40.8,0.998376623 Z M37.6,6.78896104 L37.6,52.913961 L33,49.9188312 C28.8,47.1233766 24.4,44.3279221 20,41.5324675 C16.4,39.1363636 12.6,37.9383117 8.6,37.9383117 L7.4,37.9383117 L6.6,37.9383117 C5.4,37.9383117 5.4,37.9383117 5.4,35.9415584 L5.4,32.9464286 L5.4,23.362013 C5.4,21.5649351 5.8,21.7646104 6.8,21.9642857 C11.6,22.3636364 16,20.9659091 20.8,17.7711039 C24.8,14.9756494 28.8,12.3798701 32.8,9.78409091 C34.4,8.78571429 36,7.78733766 37.6,6.78896104 L37.6,6.78896104 Z" id="Shape"></path>
                        <path d="M56.4,8.98538961 C55.6,7.78733766 54.6,6.78896104 53.6,5.99025974 C52.4,4.99188312 51,5.19155844 50.2,6.38961039 C49.6,7.18831169 49.6,8.38636364 49.8,9.38474026 C50,9.98376623 50.6,10.5827922 51,10.9821429 C51.2,11.1818182 51.4,11.3814935 51.4,11.5811688 C57.4,18.9691558 59.6,27.3555195 57.6,36.5405844 C56.6,41.5324675 54,46.125 50.2,50.1185065 C48.4,52.1152597 49.4,53.512987 50,54.112013 C50.6,54.711039 51.2,54.9107143 51.8,54.9107143 C52.6,54.9107143 53.4,54.5113636 54,53.7126623 C60.2,47.1233766 63.4,39.336039 63.6,30.9496753 C63.6,22.3636364 61.2,15.1753247 56.4,8.98538961 L56.4,8.98538961 Z" id="Shape"></path>
                    </g>
                </g>
            </g>
        </g>
    </g>
</svg>