<?xml version="1.0" encoding="UTF-8"?>
<svg width="108px" height="108px" viewBox="0 0 108 108" version="1.1" xmlns="http://www.w3.org/2000/svg" xmlns:xlink="http://www.w3.org/1999/xlink">
    <!-- Generator: Sketch 48.2 (47327) - http://www.bohemiancoding.com/sketch -->
    <title>Artboard 8</title>
    <desc>Created with Sketch.</desc>
    <defs>
        <linearGradient x1="94.3373843%" y1="73.7528935%" x2="35.546875%" y2="50%" id="linearGradient-1">
            <stop stop-color="#77ACFF" offset="0%"></stop>
            <stop stop-color="#A887FF" offset="100%"></stop>
        </linearGradient>
        <circle id="path-2" cx="51" cy="51" r="51"></circle>
        <filter x="-14.2%" y="-12.3%" width="128.4%" height="128.4%" filterUnits="objectBoundingBox" id="filter-3">
            <feOffset dx="0" dy="2" in="SourceAlpha" result="shadowOffsetOuter1"></feOffset>
            <feGaussianBlur stdDeviation="4.5" in="shadowOffsetOuter1" result="shadowBlurOuter1"></feGaussianBlur>
            <feColorMatrix values="0 0 0 0 0.584313725   0 0 0 0 0.584313725   0 0 0 0 1  0 0 0 0.698935688 0" type="matrix" in="shadowBlurOuter1"></feColorMatrix>
        </filter>
    </defs>
    <g id="Page-1" stroke="none" stroke-width="1" fill="none" fill-rule="evenodd">
        <g id="Artboard-8">
            <g id="Group-10" transform="translate(3.000000, 3.000000)">
                <g id="Oval-9">
                    <use fill="black" fill-opacity="1" filter="url(#filter-3)" xlink:href="#path-2"></use>
                    <use fill="url(#linearGradient-1)" fill-rule="evenodd" xlink:href="#path-2"></use>
                </g>
                <path d="M71.6875,29.25 L30,29.25 L30,22.5014133 C30,22.2244904 30.2242901,22 30.4972115,22 L71.1902885,22 C71.4648908,22 71.6875,22.2336884 71.6875,22.5014133 L71.6875,29.25 Z M71.6875,34.6875 L71.6875,79.4985867 C71.6875,79.7755096 71.4632099,80 71.1902885,80 L30.4972115,80 C30.2226092,80 30,79.7663116 30,79.4985867 L30,34.6875 L71.6875,34.6875 Z M39.0625,42.433035 L39.0625,52.316965 C39.0625,52.5853602 39.2856063,52.8125 39.5608219,52.8125 L45.8141781,52.8125 C46.0875718,52.8125 46.3125,52.5906414 46.3125,52.316965 L46.3125,42.433035 C46.3125,42.1646398 46.0893937,41.9375 45.8141781,41.9375 L39.5608219,41.9375 C39.2874282,41.9375 39.0625,42.1593586 39.0625,42.433035 Z M39.0625,60.558035 L39.0625,70.441965 C39.0625,70.7103602 39.2856063,70.9375 39.5608219,70.9375 L45.8141781,70.9375 C46.0875718,70.9375 46.3125,70.7156414 46.3125,70.441965 L46.3125,60.558035 C46.3125,60.2896398 46.0893937,60.0625 45.8141781,60.0625 L39.5608219,60.0625 C39.2874282,60.0625 39.0625,60.2843586 39.0625,60.558035 Z M55.375,42.433035 L55.375,52.316965 C55.375,52.5853602 55.5981063,52.8125 55.8733219,52.8125 L62.1266781,52.8125 C62.4000718,52.8125 62.625,52.5906414 62.625,52.316965 L62.625,42.433035 C62.625,42.1646398 62.4018937,41.9375 62.1266781,41.9375 L55.8733219,41.9375 C55.5999282,41.9375 55.375,42.1593586 55.375,42.433035 Z M55.375,60.558035 L55.375,70.441965 C55.375,70.7103602 55.5981063,70.9375 55.8733219,70.9375 L62.1266781,70.9375 C62.4000718,70.9375 62.625,70.7156414 62.625,70.441965 L62.625,60.558035 C62.625,60.2896398 62.4018937,60.0625 62.1266781,60.0625 L55.8733219,60.0625 C55.5999282,60.0625 55.375,60.2843586 55.375,60.558035 Z" id="Combined-Shape" fill="#FFFFFF"></path>
            </g>
        </g>
    </g>
</svg>