<?xml version="1.0" encoding="UTF-8"?>
<svg width="35px" height="35px" viewBox="0 0 35 35" version="1.1" xmlns="http://www.w3.org/2000/svg" xmlns:xlink="http://www.w3.org/1999/xlink">
    <!-- Generator: Sketch 48.2 (47327) - http://www.bohemiancoding.com/sketch -->
    <title>Artboard 3</title>
    <desc>Created with Sketch.</desc>
    <defs>
        <polygon id="path-1" points="0.108366461 0.0102287897 11.0897583 0.0102287897 11.0897583 9.44144188 0.108366461 9.44144188"></polygon>
    </defs>
    <g id="Page-1" stroke="none" stroke-width="1" fill="none" fill-rule="evenodd">
        <g id="Artboard-3">
            <g id="喷淋水流指示灯-135px">
                <circle id="Oval-9" fill="#FFFFFF" fill-rule="nonzero" cx="17.5" cy="17.5" r="17.5"></circle>
                <g id="Page-1" transform="translate(7.259259, 7.259259)">
                    <path d="M8.84501634,15.3178548 C8.9190788,14.4959511 9.08229052,13.6972573 9.347681,12.9402048 C8.63380119,13.4337566 7.8033416,13.6979399 6.86041676,13.7204672 L6.69514777,13.7204672 C5.99841203,13.7204672 5.33733602,13.5470756 4.73386413,13.2617302 C3.73950705,12.7900231 2.92824881,11.9797243 2.45987235,10.9564405 C2.31380472,10.6355978 2.18831,10.3017847 2.11561907,9.94476174 C1.85502894,8.61224013 2.12796281,7.39781596 2.9419641,6.23800336 C3.35273644,5.68096563 3.8327709,5.12324524 4.29771855,4.58395627 L4.40606919,4.45834973 C4.63168536,4.19553169 4.8696453,3.94909711 5.10486218,3.70061461 C5.20635518,3.59275679 5.30579091,3.47875521 5.40728391,3.3722627 C5.58146784,3.18999668 5.75359447,3.00909594 5.92297806,2.82682994 L6.24254384,2.47868135 C6.38106806,2.93468773 6.40712709,3.37977179 6.32072088,3.83646081 C6.2583164,4.21191517 6.07110298,4.58054305 5.88937564,4.93824865 L5.79542605,5.08501718 C5.58078207,5.46934591 5.35859468,5.86732751 5.2248708,6.31309423 C5.06851673,6.77797496 5.03285702,7.31316807 5.12474934,7.7698571 C5.13503578,7.82856451 5.15698021,7.8824934 5.1706955,7.93983553 C5.43197138,9.04571925 6.30220526,9.85874856 7.43234354,10.0908476 C7.6469875,10.1352195 7.86780335,10.1652559 8.09821989,10.1652559 C8.68729073,10.1652559 9.25647445,9.99732536 9.74885266,9.70924946 C9.97172579,9.57886443 10.182941,9.43073061 10.3660398,9.24982987 C10.7528104,8.86413586 11.012029,8.33713448 11.113522,7.72616787 C11.1238085,7.66950839 11.1306661,7.6142142 11.136838,7.55892 C11.3706833,8.21835438 11.4550322,8.85935734 11.4049715,9.48329423 C11.9830701,8.83751273 12.6441462,8.26613949 13.3662552,7.77463561 C13.0864636,6.25643475 12.4034432,5.00583043 11.2561608,3.94704917 C10.8529319,3.66102123 10.5409095,3.53268411 10.2446597,3.53268411 C9.62267216,3.53268411 9.18241198,4.03852351 9.12480787,4.79898922 C9.0918912,5.05702877 9.10217767,5.31711623 9.11246412,5.56696404 C9.1165787,5.67482183 9.12069327,5.78131434 9.12069327,5.88371099 L9.12343634,6.21752403 C9.16183909,6.60526598 9.16183909,7.00734344 9.16321062,7.32955155 C9.14400923,7.59578281 9.03222978,7.80740253 8.8443306,7.9719198 C8.76066743,8.04496275 8.66671784,8.11117922 8.55150958,8.16442547 C8.18188303,8.30778078 7.83625824,8.25658247 7.60104136,8.02311813 C7.26295995,7.68657449 7.1491232,7.32955155 7.26433146,6.95546247 C7.26433146,6.95546247 7.26501723,6.95546247 7.26501723,6.95477984 C7.33565088,6.70971054 7.44674456,6.48989909 7.58801185,6.24482979 C8.11330668,5.37172777 8.39104091,4.55050672 8.4363013,3.74362118 C8.52476478,2.64865977 8.26417467,1.62605865 7.66618888,0.709950041 C7.49337649,0.435527045 7.26433146,0.245751938 7.00511288,0.129019767 C6.83161469,0.050515676 6.64714431,0 6.44758714,0 L6.2830039,0 C5.79062568,0 5.476546,0.318794874 5.21252706,0.587756719 L4.94370777,0.856035916 C4.90804806,0.896311928 4.87307414,0.933174719 4.83741443,0.972085442 C4.73112108,1.08950026 4.62482774,1.20623243 4.5185344,1.32023402 C4.37109524,1.47655956 4.22365608,1.63356774 4.09816136,1.77897097 C3.96923782,1.90662545 3.85060073,2.03564522 3.73196364,2.16398234 C3.62361303,2.2820798 3.51526238,2.40017726 3.37536663,2.54080198 C3.18609589,2.75583493 2.99133906,2.96745465 2.797268,3.17839171 C2.40158245,3.60914027 1.99355316,4.05285904 1.63284156,4.52320094 C0.236627063,6.21684137 -0.268094877,8.15486848 0.133762538,10.2888145 C0.180394456,10.5188656 0.237312827,10.7414076 0.301774596,10.9564405 C0.67208689,12.1790565 1.32973409,13.1443154 2.14373537,13.878158 C3.49331796,15.0959954 5.27836037,15.6707819 6.9427084,15.6707819 L6.98385419,15.6707819 C7.51120634,15.6707819 8.09067651,15.5738464 8.60568489,15.4031853 C8.6879765,15.3779275 8.76478203,15.3451606 8.84501634,15.3178548" id="Fill-1" fill="#83D9FF" fill-rule="nonzero"></path>
                    <g id="Group-5" transform="translate(9.448560, 6.452675)">
                        <g id="Fill-3-Clipped">
                            <mask id="mask-2" fill="white">
                                <use xlink:href="#path-1"></use>
                            </mask>
                            <g id="path-1"></g>
                            <path d="M9.80829982,0.0102287897 C4.60852646,0.0102287897 0.257205772,4.19162831 0.108366461,9.33154787 L3.99533594,9.44144188 C4.08450233,6.36169595 6.69227681,3.85651939 9.80829982,3.85651939 L11.0902384,3.85651939 L11.0902384,0.0102287897 L9.80829982,0.0102287897 Z" id="Fill-3" fill="#83D9FF" fill-rule="nonzero" mask="url(#mask-2)"></path>
                        </g>
                    </g>
                    <path d="M9.58297615,16.5981169 C9.23363342,16.5514641 8.91012007,16.8053887 8.86427287,17.1672812 L8.532365,19.7625102 C8.48587206,20.1244027 8.73318864,20.4569706 9.08382284,20.5042898 C9.1122352,20.5082887 9.14000181,20.5102881 9.16841416,20.5102881 C9.4848244,20.5102881 9.7599076,20.2683599 9.80252612,19.9357921 L10.134434,17.3398965 C10.1802812,16.9780041 9.93361035,16.6454362 9.58297615,16.5981169" id="Fill-6" fill="#83D9FF" fill-rule="nonzero"></path>
                    <path d="M11.5226337,16.5925926 C11.1414488,16.5925926 10.8305931,16.8863405 10.8312964,17.2488521 L10.8312964,19.8491884 C10.8284832,20.1970126 11.113317,20.484752 11.4762164,20.5087859 C11.5071613,20.5107888 11.5381062,20.5107888 11.5690511,20.5087859 C11.9319505,20.484752 12.2167843,20.1970126 12.2139711,19.8491884 L12.2139711,17.2488521 C12.2146744,16.8863405 11.904522,16.5925926 11.5226337,16.5925926" id="Fill-8" fill="#83D9FF" fill-rule="nonzero"></path>
                    <path d="M13.2318387,16.5981169 C12.8812045,16.6454362 12.6345336,16.9780041 12.6803808,17.3398965 L13.0122887,19.9357921 C13.0549072,20.2683599 13.3299904,20.5102881 13.6464007,20.5102881 C13.674813,20.5102881 13.7025796,20.5082887 13.730992,20.5042898 C14.0816262,20.4569706 14.3289428,20.1244027 14.2824498,19.7625102 L13.9505419,17.1672812 C13.9046947,16.8053887 13.5818271,16.5514641 13.2318387,16.5981169" id="Fill-10" fill="#83D9FF" fill-rule="nonzero"></path>
                </g>
            </g>
        </g>
    </g>
</svg>