<?xml version="1.0" encoding="UTF-8"?>
<svg width="108px" height="108px" viewBox="0 0 108 108" version="1.1" xmlns="http://www.w3.org/2000/svg" xmlns:xlink="http://www.w3.org/1999/xlink">
    <!-- Generator: Sketch 48.2 (47327) - http://www.bohemiancoding.com/sketch -->
    <title>Artboard 8</title>
    <desc>Created with Sketch.</desc>
    <defs>
        <linearGradient x1="94.3373843%" y1="73.7528935%" x2="35.546875%" y2="50%" id="linearGradient-1">
            <stop stop-color="#77ACFF" offset="0%"></stop>
            <stop stop-color="#A887FF" offset="100%"></stop>
        </linearGradient>
        <circle id="path-2" cx="51" cy="51" r="51"></circle>
        <filter x="-14.2%" y="-12.3%" width="128.4%" height="128.4%" filterUnits="objectBoundingBox" id="filter-3">
            <feOffset dx="0" dy="2" in="SourceAlpha" result="shadowOffsetOuter1"></feOffset>
            <feGaussianBlur stdDeviation="4.5" in="shadowOffsetOuter1" result="shadowBlurOuter1"></feGaussianBlur>
            <feColorMatrix values="0 0 0 0 0.584313725   0 0 0 0 0.584313725   0 0 0 0 1  0 0 0 0.698935688 0" type="matrix" in="shadowBlurOuter1"></feColorMatrix>
        </filter>
    </defs>
    <g id="Page-1" stroke="none" stroke-width="1" fill="none" fill-rule="evenodd">
        <g id="Artboard-8">
            <g id="Group-8" transform="translate(3.000000, 3.000000)">
                <g id="Group-22">
                    <g id="Oval-9">
                        <use fill="black" fill-opacity="1" filter="url(#filter-3)" xlink:href="#path-2"></use>
                        <use fill="url(#linearGradient-1)" fill-rule="evenodd" xlink:href="#path-2"></use>
                    </g>
                </g>
                <g id="Group-7-Copy-28" transform="translate(19.000000, 19.000000)" fill="#FFFFFF">
                    <g id="Group-6">
                        <g id="Page-1" transform="translate(0.204547, 31.508197)">
                            <path d="M33.994295,11.3308945 C33.994295,15.5016177 26.3828863,18.8858985 16.9971475,18.8858985 C7.61060293,18.8858985 0,15.5016177 0,11.3308945 C0,7.16097705 7.61060293,3.77750202 16.9971475,3.77750202 C26.3828863,3.77750202 33.994295,7.16097705 33.994295,11.3308945" id="Fill-1"></path>
                            <path d="M16.9971475,26.439291 C9.08679399,26.439291 2.49630999,24.0283938 0.601112735,20.7738437 C0.24576325,21.3846259 0,22.0050773 0,22.6625948 C0,26.8397642 7.60737981,30.216793 16.9971475,30.216793 C26.3861094,30.216793 33.994295,26.8397642 33.994295,22.6625948 C33.994295,22.0050773 33.7453086,21.3846259 33.3923765,20.7738437 C31.4947619,24.0283938 24.9066952,26.439291 16.9971475,26.439291 Z" id="Fill-2"></path>
                            <path d="M43.4364385,22.6625948 C41.4445475,22.6625948 37.7709913,22.5086906 37.7709913,22.2282787 L37.7709913,25.9832189 C37.7709913,26.2636307 41.4381013,26.439291 43.4364385,26.439291 C52.8262062,26.439291 60.433586,23.0622622 60.433586,18.8858985 C60.433586,18.2275753 60.1845996,17.6079296 59.8324733,16.9971475 C57.937276,20.2516976 51.346792,22.6625948 43.4364385,22.6625948 Z" id="Fill-3"></path>
                            <path d="M43.4364385,15.1083965 C52.8262062,15.1083965 60.433586,11.7313677 60.433586,7.55419825 C60.433586,3.38669816 52.8262062,0 43.4364385,0 C38.2085304,0 33.5938218,1.07007736 30.4778661,2.72273449 C34.9346416,4.80326142 37.7709913,7.88779165 37.7709913,11.3308945 C37.7709913,12.4452898 37.4656002,13.5153672 36.917669,14.532263 C38.9264814,14.9037281 41.1262639,15.1083965 43.4364385,15.1083965 Z" id="Fill-4"></path>
                        </g>
                        <path d="M24.1213162,25.7066275 C22.2287883,23.8140997 22.0558693,21.9119906 24.1213162,19.8465438 C28.4633156,15.5045443 28.4633156,10.4182611 23.7759221,7.29333209 C22.7345071,6.59905546 21.3274511,6.88046667 20.6331745,7.9218816 C19.9388979,8.96329653 20.2203091,10.3703525 21.261724,11.0646292 C23.373133,12.4722352 23.373133,14.1847545 20.9163299,16.6415575 C16.9383968,20.6194907 17.3698158,25.3650996 20.9163299,28.9116138 C21.8013624,29.7966463 23.2362837,29.7966463 24.1213162,28.9116138 C25.0063487,28.0265813 25.0063487,26.59166 24.1213162,25.7066275 Z" id="Combined-Shape" fill-rule="nonzero"></path>
                        <path d="M37.5371659,18.9987027 C35.644638,17.1061748 35.471719,15.2040658 37.5371659,13.1386189 C41.8791653,8.79661947 41.8791653,3.71033626 37.1917718,0.585407238 C36.1503568,-0.108869384 34.7433008,0.172541819 34.0490242,1.21395675 C33.3547476,2.25537169 33.6361588,3.6624277 34.6775737,4.35670432 C36.7889827,5.76431031 36.7889827,7.47682961 34.3321796,9.93363267 C30.3542465,13.9115658 30.7856655,18.6571748 34.3321796,22.2036889 C35.2172121,23.0887214 36.6521334,23.0887214 37.5371659,22.2036889 C38.4221984,21.3186564 38.4221984,19.8837352 37.5371659,18.9987027 Z" id="Combined-Shape-Copy" fill-rule="nonzero"></path>
                    </g>
                </g>
            </g>
        </g>
    </g>
</svg>