<?xml version="1.0" encoding="UTF-8"?>
<svg width="35px" height="35px" viewBox="0 0 35 35" version="1.1" xmlns="http://www.w3.org/2000/svg" xmlns:xlink="http://www.w3.org/1999/xlink">
    <!-- Generator: Sketch 48.2 (47327) - http://www.bohemiancoding.com/sketch -->
    <title>Artboard 3</title>
    <desc>Created with Sketch.</desc>
    <defs>
        <polygon id="path-1" points="0 0.093860215 20.2156237 0.093860215 20.2156237 16.558914 0 16.558914"></polygon>
    </defs>
    <g id="Page-1" stroke="none" stroke-width="1" fill="none" fill-rule="evenodd">
        <g id="Artboard-3">
            <g id="变电箱-135px">
                <g id="Group-8-Copy-2" fill="#FEFEFE" fill-rule="nonzero">
                    <g id="Group-7-Copy-48">
                        <circle id="Oval-12" cx="17.5" cy="17.5" r="17.5"></circle>
                    </g>
                </g>
                <g id="Page-1" transform="translate(7.259259, 5.703704)">
                    <g id="Group-3" transform="translate(0.000000, 6.435409)">
                        <g id="Fill-1-Clipped">
                            <mask id="mask-2" fill="white">
                                <use xlink:href="#path-1"></use>
                            </mask>
                            <g id="path-1"></g>
                            <path d="M18.3339032,13.2967634 C18.3339032,14.1307419 17.6037957,14.8104193 16.7058387,14.8104193 L3.50970967,14.8104193 C2.61175268,14.8104193 1.88164516,14.1307419 1.88164516,13.2967634 L1.88164516,3.35676343 C1.88164516,2.52278495 2.61175268,1.84310753 3.50970967,1.84310753 L16.7058387,1.84310753 C17.6037957,1.84310753 18.3339032,2.52278495 18.3339032,3.35676343 L18.3339032,13.2967634 Z M16.7058387,0.093860215 L3.50970967,0.093860215 C1.57454839,0.093860215 -7.52688173e-05,1.55708602 -7.52688173e-05,3.35676343 L-7.52688173e-05,13.2967634 C-7.52688173e-05,15.0956882 1.57454839,16.558914 3.50970967,16.558914 L16.7058387,16.558914 C18.641,16.558914 20.2156237,15.0956882 20.2156237,13.2967634 L20.2156237,3.35676343 C20.2156237,1.55708602 18.641,0.093860215 16.7058387,0.093860215 Z" id="Fill-1" fill="#83D9FF" fill-rule="nonzero" mask="url(#mask-2)"></path>
                        </g>
                    </g>
                    <path d="M12.6916774,13.476129 L10.3741505,13.476129 L10.3741505,10.0672043 C10.3741505,9.91516128 10.2680215,9.78344085 10.1189892,9.75107526 C9.9684516,9.71795699 9.81866667,9.79473118 9.75544085,9.93322581 L7.22866667,15.503871 C7.18350539,15.6039785 7.19178494,15.7198925 7.25124732,15.8124731 C7.31146236,15.9058064 7.41307526,15.9615054 7.52372043,15.9615054 L9.72683872,15.9615054 L9.72683872,19.4562366 C9.72683872,19.6082796 9.83146236,19.74 9.97974193,19.7731183 C10.0038279,19.7783871 10.0271613,19.7806452 10.0504946,19.7806452 C10.1739355,19.7806452 10.2898495,19.7091398 10.344043,19.5939785 L12.9852258,13.9367742 C13.0318925,13.8366667 13.0243656,13.7192473 12.9649032,13.625914 C12.9054409,13.5325807 12.8023226,13.476129 12.6916774,13.476129" id="Fill-4" fill="#83D9FF" fill-rule="nonzero"></path>
                    <path d="M4.72560216,2.05649462 L6.90463441,2.05649462 C7.46915053,2.05649462 7.92678494,1.59886022 7.92678494,1.0335914 L7.92678494,1.02305376 C7.92678494,0.457784947 7.46915053,0.000150537634 6.90463441,0.000150537634 L4.72560216,0.000150537634 C4.16108601,0.000150537634 3.70269892,0.457784947 3.70269892,1.02305376 L3.70269892,1.0335914 C3.70269892,1.59886022 4.16108601,2.05649462 4.72560216,2.05649462" id="Fill-6" fill="#83D9FF" fill-rule="nonzero"></path>
                    <path d="M13.3113656,2.05649462 L15.4903978,2.05649462 C16.054914,2.05649462 16.5125484,1.59886022 16.5125484,1.0335914 L16.5125484,1.02305376 C16.5125484,0.457784947 16.054914,0.000150537634 15.4903978,0.000150537634 L13.3113656,0.000150537634 C12.7468495,0.000150537634 12.2884624,0.457784947 12.2884624,1.02305376 L12.2884624,1.0335914 C12.2884624,1.59886022 12.7468495,2.05649462 13.3113656,2.05649462" id="Fill-8" fill="#83D9FF" fill-rule="nonzero"></path>
                    <path d="M4.72560216,5.14725763 L6.90463441,5.14725763 C7.46915053,5.14725763 7.92678494,4.68962322 7.92678494,4.12510708 L7.92678494,4.11381675 C7.92678494,3.54930064 7.46915053,3.09166623 6.90463441,3.09166623 L4.72560216,3.09166623 C4.16108601,3.09166623 3.70269892,3.54930064 3.70269892,4.11381675 L3.70269892,4.12510708 C3.70269892,4.68962322 4.16108601,5.14725763 4.72560216,5.14725763" id="Fill-10" fill="#83D9FF" fill-rule="nonzero"></path>
                    <path d="M13.3113656,5.14725763 L15.4903978,5.14725763 C16.054914,5.14725763 16.5125484,4.68962322 16.5125484,4.12510708 L16.5125484,4.11381675 C16.5125484,3.54930064 16.054914,3.09166623 15.4903978,3.09166623 L13.3113656,3.09166623 C12.7468495,3.09166623 12.2884624,3.54930064 12.2884624,4.11381675 L12.2884624,4.12510708 C12.2884624,4.68962322 12.7468495,5.14725763 13.3113656,5.14725763" id="Fill-12" fill="#83D9FF" fill-rule="nonzero"></path>
                </g>
            </g>
        </g>
    </g>
</svg>