<?xml version="1.0" encoding="UTF-8"?>
<svg width="35px" height="35px" viewBox="0 0 35 35" version="1.1" xmlns="http://www.w3.org/2000/svg" xmlns:xlink="http://www.w3.org/1999/xlink">
    <!-- Generator: Sketch 48.2 (47327) - http://www.bohemiancoding.com/sketch -->
    <title>Artboard 3</title>
    <desc>Created with Sketch.</desc>
    <defs></defs>
    <g id="Page-1" stroke="none" stroke-width="1" fill="none" fill-rule="evenodd">
        <g id="Artboard-3" fill-rule="nonzero">
            <g id="灭火器-135px">
                <circle id="Oval-12" fill="#FFFFFF" cx="17.5" cy="17.5" r="17.5"></circle>
                <g id="fire" transform="translate(11.666667, 4.925926)" fill="#83D9FF">
                    <g id="圖層_1">
                        <g id="Group">
                            <path d="M0.0736842104,10.7471065 L0.368421052,10.7471065 C3.53684211,10.7471065 6.70526316,10.6701389 9.94736843,10.6701389 C10.3894737,10.6701389 10.4631579,10.7471065 10.4631579,11.208912 L10.4631579,23.1388889 C10.4631579,23.9085648 10.168421,24.2164352 9.43157896,24.2164352 L1.03157895,24.2164352 C0.294736843,24.2164352 0.0736842104,23.9085648 0.0736842104,23.2158565 L0.0736842104,11.1319444 C-2.68007838e-13,10.9780093 -2.68007838e-13,10.8240741 0.0736842104,10.7471065 Z" id="Shape"></path>
                            <path d="M10.168421,9.43865741 L0.368421052,9.43865741 C0.736842104,8.89988426 1.03157895,8.4380787 1.4,7.97627315 C1.62105263,7.59143519 1.84210526,7.05266204 2.21052632,6.89872685 C2.57894737,6.74479167 3.09473684,6.82175926 3.53684211,6.82175926 L8.10526316,6.82175926 C8.25263157,6.82175926 8.4,6.89872685 8.4736842,6.97569444 C8.98947368,7.74537037 9.57894736,8.59201389 10.168421,9.43865741 Z" id="Shape"></path>
                            <path d="M3.61052632,3.28125 L3.61052632,1.89583333 C3.61052632,1.28009259 3.90526316,0.972222222 4.49473684,0.972222222 L6.11578948,0.972222222 C6.70526316,0.972222222 7,1.28009259 7,1.89583333 L7,4.58969907 C7,5.28240741 6.70526316,5.59027778 6.04210527,5.59027778 L4.49473684,5.59027778 C3.90526316,5.59027778 3.61052632,5.28240741 3.61052632,4.66666667 L3.61052632,3.28125 Z" id="Shape"></path>
                            <path d="M9.57894736,2.51157407 C10.6105263,2.97337963 11.568421,3.35821759 12.4526316,3.74305556 C12.6,3.82002315 12.7473684,3.82002315 12.8210526,3.89699074 C13.1157895,4.05092593 13.2631579,4.3587963 13.1157895,4.66666667 C12.968421,4.97453704 12.6736842,5.12847222 12.3052632,4.97453704 C10.9789474,4.3587963 9.57894736,3.74305556 8.17894736,3.20428241 C8.10526316,3.12731481 7.95789473,3.12731481 7.88421052,3.05034722 C7.73684211,2.89641204 7.58947368,2.66550926 7.58947368,2.51157407 C7.58947368,2.35763889 7.81052632,2.12673611 7.95789473,1.97280093 C8.4,1.74189815 8.84210527,1.58796296 9.28421052,1.43402778 C10.3157895,0.972222222 11.3473684,0.510416667 12.4526316,0.125578704 C12.8947368,-0.0283564815 13.1157895,0.0486111111 13.2631579,0.433449074 C13.4105263,0.741319444 13.2631579,1.04918981 12.8210526,1.28009259 C11.7157895,1.58796296 10.6842105,2.04976852 9.57894736,2.51157407 Z" id="Shape"></path>
                        </g>
                    </g>
                </g>
            </g>
        </g>
    </g>
</svg>