<?xml version="1.0" encoding="UTF-8"?>
<svg width="26px" height="26px" viewBox="0 0 26 26" version="1.1" xmlns="http://www.w3.org/2000/svg" xmlns:xlink="http://www.w3.org/1999/xlink">
    <title>ic-safety</title>
    <defs>
        <polygon id="path-1" points="0 0 22.1711226 0 22.1711226 26.5450175 0 26.5450175"></polygon>
    </defs>
    <g id="Page-1" stroke="none" stroke-width="1" fill="none" fill-rule="evenodd">
        <g id="Artboard-6">
            <g id="Page-1" transform="translate(1.994318, 0.000000)">
                <mask id="mask-2" fill="white">
                    <use xlink:href="#path-1"></use>
                </mask>
                <g id="Clip-2"></g>
                <path d="M10.1357948,3.36913321 L10.1357948,23.7236334 C10.1357948,23.9504092 9.9110725,24.1012105 9.71341453,24.0071031 C7.46685751,22.9358861 5.64711748,21.6057591 4.15037411,19.9407478 C2.70354436,18.3312827 1.95927668,16.4541855 1.93864571,14.3620185 C1.91868026,12.3506462 1.92289519,10.3043853 1.92688828,8.32560631 C1.92821931,7.60694755 1.92977217,6.88828879 1.92999401,6.16963003 C1.93021585,6.0084999 2.04756834,5.87583149 2.20108048,5.85976439 C4.68034593,5.59924772 7.0908415,4.71119574 9.67947326,3.10150111 C9.88068065,2.97663673 10.1357948,3.12468365 10.1357948,3.36913321 M19.9601281,5.83199124 C20.1129748,5.84966506 20.2287744,5.98256299 20.227887,6.14323407 L20.2150204,8.54802098 C20.2039285,10.4744672 20.1928366,12.4006838 20.1864033,14.3269004 C20.1797481,16.3304687 19.4780734,18.1387069 18.0412264,19.8544444 C16.6303344,21.5391954 14.7997243,22.889521 12.4460194,23.9768051 C12.2483614,24.0679286 12.0258575,23.9141434 12.0258575,23.6885153 L12.0258575,3.33653994 C12.0258575,3.09117226 12.2829682,2.9435844 12.4841756,3.07074408 C14.9558985,4.63108973 17.4154204,5.53911083 19.9601281,5.83199124 M22.1603209,9.21733077 C22.1605428,8.23540098 22.161652,7.25347119 22.1603209,6.27177093 L22.1603209,6.07873611 C22.1609864,5.97774286 22.161652,5.8751429 22.1603209,5.77185436 C22.1487853,4.8298628 21.4828266,4.03798394 20.5899272,3.90164306 C20.3887198,3.87088602 20.1870688,3.84242429 19.9854177,3.81373303 C19.4545585,3.73867668 18.9057304,3.66109551 18.3808609,3.54265797 C16.7392571,3.17265544 15.1273796,2.44986514 13.3087487,1.26801463 C13.0336692,1.08944021 12.7619172,0.905127532 12.4901652,0.721044388 C12.2348293,0.547978688 11.9797152,0.374912989 11.7217172,0.206437892 C11.3221863,-0.0547673682 10.8674176,-0.0685391745 10.4503615,0.167647304 C10.1865957,0.317530463 9.90752309,0.495186764 9.59761491,0.711174593 C7.93227438,1.87121975 6.35877493,2.68788786 4.78660651,3.20800308 C3.76193515,3.54701905 2.65873301,3.7609411 1.50761379,3.84357194 C0.450332187,3.91977594 -0.000443349533,4.42887371 3.27176762e-07,5.54599673 L0.000444003886,8.54343038 C0.000444003886,10.3268793 0.000222165531,12.1103282 0.00310606414,13.8935476 C0.00377157921,14.3220803 0.0315013735,14.7398251 0.0554599159,15.0561176 C0.232265085,17.3706992 1.14845749,19.4681453 2.77852572,21.2901553 C4.77551459,23.5223355 7.29315808,25.2057093 10.4745419,26.4359907 C10.6562275,26.5062269 10.8720763,26.5450175 11.0828227,26.5450175 C11.2944565,26.5450175 11.4907834,26.5062269 11.6509507,26.4330068 C12.9371695,25.8444916 14.0949439,25.3044073 15.2363022,24.6497874 C17.4484743,23.380945 19.2358259,21.6952759 20.5493308,19.6400633 C21.5655723,18.0494197 22.1268233,16.4794338 22.1603209,14.8405888 C22.1818393,13.7895705 22.1654232,12.7227145 22.1603209,11.6909767 C22.1585462,11.3393366 22.1612083,10.9872374 22.1603209,10.6353678" id="Fill-1" fill="#C4EBFF" mask="url(#mask-2)"></path>
            </g>
        </g>
    </g>
</svg>