<?xml version="1.0" encoding="UTF-8"?>
<svg width="35px" height="35px" viewBox="0 0 35 35" version="1.1" xmlns="http://www.w3.org/2000/svg" xmlns:xlink="http://www.w3.org/1999/xlink">
    <!-- Generator: Sketch 48.2 (47327) - http://www.bohemiancoding.com/sketch -->
    <title>Artboard 3</title>
    <desc>Created with Sketch.</desc>
    <defs>
        <polygon id="path-1" points="0 0.120868455 20.5919796 0.120868455 20.5919796 18.5951469 0 18.5951469"></polygon>
    </defs>
    <g id="Page-1" stroke="none" stroke-width="1" fill="none" fill-rule="evenodd">
        <g id="Artboard-3">
            <g id="紧急应变器材-135px">
                <circle id="Oval-9" fill="#FFFFFF" fill-rule="nonzero" cx="17.5" cy="17.5" r="17.5"></circle>
                <g id="Page-1" transform="translate(7.259259, 8.037037)">
                    <g id="Group-3" transform="translate(0.000000, 0.112058)">
                        <g id="Fill-1-Clipped">
                            <mask id="mask-2" fill="white">
                                <use xlink:href="#path-1"></use>
                            </mask>
                            <g id="path-1"></g>
                            <path d="M18.4247152,16.5682759 L2.16755045,16.5682759 C2.09030907,16.5682759 2.02737165,16.5053384 2.02737165,16.4280971 L2.02737165,11.6942018 L4.49766538,11.6942018 C5.05766538,11.6942018 5.51110088,11.2407663 5.51110088,10.6807663 C5.51110088,10.1200511 5.05766538,9.66733079 4.49766538,9.66733079 L2.02737165,9.66733079 L2.02737165,5.84602809 C2.02737165,5.76878672 2.09030907,5.70584931 2.16755045,5.70584931 L18.4247152,5.70584931 C18.5019566,5.70584931 18.564894,5.76878672 18.564894,5.84602809 L18.564894,9.66733079 L17.1795556,9.66733079 C16.6202707,9.66733079 16.1661201,10.1200511 16.1661201,10.6807663 C16.1661201,11.2407663 16.6202707,11.6942018 17.1795556,11.6942018 L18.564894,11.6942018 L18.564894,16.4280971 C18.564894,16.5053384 18.5019566,16.5682759 18.4247152,16.5682759 Z M5.14491955,2.35228608 C5.14491955,2.22569604 5.20356579,2.15489144 5.20142018,2.14773946 L15.3672439,2.14344828 C15.3886999,2.15489144 15.4473461,2.22569604 15.4473461,2.35228608 L15.4473461,3.67969347 L5.14491955,3.67969347 L5.14491955,2.35228608 Z M18.4247152,3.67969347 L17.4749323,3.67969347 L17.4749323,2.35228608 C17.4749323,1.1214304 16.5394534,0.120868455 15.3901303,0.120868455 L5.20142018,0.120868455 C4.05209705,0.120868455 3.11733333,1.1214304 3.11733333,2.35228608 L3.11733333,3.67969347 L2.16755045,3.67969347 C0.972454661,3.67969347 -0.000214559387,4.6509323 -0.000214559387,5.84602809 L-0.000214559387,16.4280971 C-0.000214559387,17.6231928 0.972454661,18.5951469 2.16755045,18.5951469 L18.4247152,18.5951469 C19.619811,18.5951469 20.5924802,17.6231928 20.5924802,16.4280971 L20.5924802,5.84602809 C20.5924802,4.6509323 19.619811,3.67969347 18.4247152,3.67969347 Z" id="Fill-1" fill="#83D9FF" fill-rule="nonzero" mask="url(#mask-2)"></path>
                        </g>
                    </g>
                    <path d="M13.2625594,8.10568274 L9.81029884,11.5886968 C9.71589272,11.6838181 9.54996679,11.6831029 9.45627586,11.5872664 L8.53939209,10.6532179 C8.17750191,10.2841757 7.53883013,10.2805997 7.17193359,10.6453507 C6.98812771,10.8284413 6.88728481,11.0708935 6.888,11.3297951 C6.888,11.5886968 6.9895581,11.8311489 7.173364,12.0135244 L8.98066921,13.8029497 C9.1623295,13.9831795 9.40335122,14.0825921 9.6586769,14.0825921 C9.91686334,14.0825921 10.1586003,13.9824644 10.3409757,13.8000889 L14.652189,9.48959078 C15.027668,9.11339665 15.027668,8.5019024 14.6293027,8.10282195 C14.2645517,7.73735579 13.6258799,7.73735579 13.2625594,8.10568274" id="Fill-4" fill="#83D9FF" fill-rule="nonzero"></path>
                </g>
            </g>
        </g>
    </g>
</svg>