<?xml version="1.0" encoding="UTF-8"?>
<svg width="35px" height="35px" viewBox="0 0 35 35" version="1.1" xmlns="http://www.w3.org/2000/svg" xmlns:xlink="http://www.w3.org/1999/xlink">
    <!-- Generator: Sketch 48.2 (47327) - http://www.bohemiancoding.com/sketch -->
    <title>Artboard 3</title>
    <desc>Created with Sketch.</desc>
    <defs></defs>
    <g id="Page-1" stroke="none" stroke-width="1" fill="none" fill-rule="evenodd">
        <g id="Artboard-3">
            <g id="室内消防栓-135px">
                <circle id="Oval-12" fill="#FFFFFF" fill-rule="nonzero" cx="17.5" cy="17.5" r="17.5"></circle>
                <g id="Page-1" transform="translate(6.948529, 4.117647)">
                    <path d="M5.23953564,8.32296016 C5.23953564,8.28892315 5.24369287,8.25820684 5.24369287,8.225 L3.58079693,8.225 C3.58079693,8.25820684 3.57663971,8.28975332 3.57663971,8.32296016 L3.57663971,10.3917457 L3.99319514,10.3917457 L3.99319514,11.7822818 L3.57663971,11.7822818 L3.57663971,14.0254032 L3.99319514,14.0254032 L3.99319514,15.4159393 L3.57663971,15.4159393 L3.57663971,22.9015892 L5.23953564,22.9015892 L5.23953564,8.32296016 Z" id="Fill-1" fill="#83D9FF" fill-rule="nonzero"></path>
                    <path d="M17.375849,14.0255692 L17.8730549,14.0255692 L17.8730549,11.7824478 L17.375849,11.7824478 L17.375849,10.3919118 L17.8730549,10.3919118 L17.8730549,8.32312618 C17.8730549,8.28991936 17.8697291,8.25837286 17.8688976,8.22516604 L16.2060017,8.22516604 C16.2060017,8.25837286 16.2101589,8.28908919 16.2101589,8.32312618 L16.2101589,22.900925 L17.8730549,22.900925 L17.8730549,15.4161053 L17.375849,15.4161053 L17.375849,14.0255692 Z" id="Fill-3" fill="#83D9FF" fill-rule="nonzero"></path>
                    <path d="M10.7250967,2.68045542 C12.8835356,2.68045542 15.0519519,3.77628084 15.8684338,6.15970114 L17.598677,6.15970114 C16.887789,3.45666508 14.8291239,1.57383776 12.0296386,1.12803605 C12.0387845,1.1919592 12.0487619,1.25588235 12.0487619,1.32229602 L9.40143156,1.32229602 C9.40143156,1.25588235 9.41140895,1.1919592 9.42055486,1.12803605 C6.62106957,1.57466793 4.56157296,3.45666508 3.8515164,6.15970114 L5.58175962,6.15970114 C6.39741007,3.77628084 8.56582635,2.68045542 10.7250967,2.68045542" id="Fill-5" fill="#83D9FF" fill-rule="nonzero"></path>
                    <path d="M16.2058354,8.22491698 L17.8687313,8.22491698 L18.4349474,8.22491698 C19.0036578,8.22491698 19.4684372,7.76002135 19.4684372,7.19218454 C19.4684372,6.62434773 19.0036578,6.16028226 18.4349474,6.16028226 L17.5985107,6.16028226 L15.8682675,6.16028226 L5.58242478,6.16028226 L3.85135012,6.16028226 L3.01574492,6.16028226 C2.4470345,6.16028226 1.98142364,6.62434773 1.98142364,7.19218454 C1.98142364,7.76002135 2.4470345,8.22491698 3.01574492,8.22491698 L3.58112954,8.22491698 L5.24402545,8.22491698 L16.2058354,8.22491698 Z" id="Fill-7" fill="#83D9FF" fill-rule="nonzero"></path>
                    <path d="M5.23953564,22.9012571 L3.57663971,22.9012571 L2.54813857,22.9012571 C1.97942817,22.9012571 1.51464876,23.3661527 1.51464876,23.9339896 C1.51464876,24.5018264 1.97942817,24.9658918 2.54813857,24.9658918 L18.9018886,24.9658918 C19.470599,24.9658918 19.9362098,24.5018264 19.9362098,23.9339896 C19.9362098,23.3661527 19.470599,22.9012571 18.9018886,22.9012571 L17.8733874,22.9012571 L16.2104915,22.9012571 L5.23953564,22.9012571 Z" id="Fill-9" fill="#83D9FF" fill-rule="nonzero"></path>
                    <path d="M10.7250967,11.3923506 C11.5598705,11.3923506 12.2391635,12.0706001 12.2391635,12.9040916 C12.2391635,13.737583 11.5598705,14.4166627 10.7250967,14.4166627 C9.89032296,14.4166627 9.21019853,13.737583 9.21019853,12.9040916 C9.21019853,12.0706001 9.89032296,11.3923506 10.7250967,11.3923506 M10.7250967,16.0770043 C12.4769576,16.0770043 13.9020594,14.6540916 13.9020594,12.9040916 C13.9020594,11.1549217 12.4769576,9.73200903 10.7250967,9.73200903 C8.97323587,9.73200903 7.54730259,11.1549217 7.54730259,12.9040916 C7.54730259,14.6540916 8.97323587,16.0770043 10.7250967,16.0770043" id="Fill-11" fill="#83D9FF" fill-rule="nonzero"></path>
                    <path d="M12.0490113,1.32246205 C12.0490113,1.25604839 12.0390339,1.19212524 12.029888,1.12820209 C11.9342715,0.493121442 11.3871787,-3.55271368e-15 10.7253462,-3.55271368e-15 C10.0635136,-3.55271368e-15 9.51642081,0.493121442 9.42080429,1.12820209 C9.41165838,1.19212524 9.40084955,1.25604839 9.40084955,1.32246205 L12.0490113,1.32246205 Z" id="Fill-13" fill="#83D9FF" fill-rule="nonzero"></path>
                    <path d="M20.6858433,9.71739802 C20.3673988,9.71739802 20.1071555,9.97724147 20.1071555,10.2951969 L20.1071555,10.3914967 L20.6442709,10.3914967 L20.6442709,11.7820327 L20.1071555,11.7820327 L20.1071555,14.0251542 L20.6442709,14.0251542 L20.6442709,15.4156902 L20.1071555,15.4156902 L20.1071555,15.51199 C20.1071555,15.8299455 20.3673988,16.0906191 20.6858433,16.0906191 C21.0042879,16.0906191 21.2645311,15.8299455 21.2645311,15.51199 L21.2645311,10.2951969 C21.2645311,9.97724147 21.0042879,9.71739802 20.6858433,9.71739802" id="Fill-15" fill="#83D9FF" fill-rule="nonzero"></path>
                    <path d="M20.6858433,9.71739802 C20.3673988,9.71739802 20.1071555,9.97724147 20.1071555,10.2951969 L20.1071555,10.3914967 L20.6442709,10.3914967 L20.6442709,11.7820327 L20.1071555,11.7820327 L20.1071555,14.0251542 L20.6442709,14.0251542 L20.6442709,15.4156902 L20.1071555,15.4156902 L20.1071555,15.51199 C20.1071555,15.8299455 20.3673988,16.0906191 20.6858433,16.0906191 C21.0042879,16.0906191 21.2645311,15.8299455 21.2645311,15.51199 L21.2645311,10.2951969 C21.2645311,9.97724147 21.0042879,9.71739802 20.6858433,9.71739802 Z" id="Stroke-17" stroke="#83D9FF" stroke-width="0.25"></path>
                    <polygon id="Fill-19" fill="#83D9FF" fill-rule="nonzero" points="17.375849 11.7822818 17.8730549 11.7822818 20.1071555 11.7822818 20.6442709 11.7822818 20.6442709 10.3917457 20.1071555 10.3917457 17.8730549 10.3917457 17.375849 10.3917457"></polygon>
                    <polygon id="Stroke-21" stroke="#83D9FF" stroke-width="0.25" points="17.375849 11.7822818 17.8730549 11.7822818 20.1071555 11.7822818 20.6442709 11.7822818 20.6442709 10.3917457 20.1071555 10.3917457 17.8730549 10.3917457 17.375849 10.3917457"></polygon>
                    <polygon id="Fill-23" fill="#83D9FF" fill-rule="nonzero" points="20.6440215 14.0255692 20.1069061 14.0255692 17.8728054 14.0255692 17.3755996 14.0255692 17.3755996 15.4161053 17.8728054 15.4161053 20.1069061 15.4161053 20.6440215 15.4161053"></polygon>
                    <polygon id="Stroke-25" stroke="#83D9FF" stroke-width="0.25" points="20.6440215 14.0255692 20.1069061 14.0255692 17.8728054 14.0255692 17.3755996 14.0255692 17.3755996 15.4161053 17.8728054 15.4161053 20.1069061 15.4161053 20.6440215 15.4161053"></polygon>
                    <path d="M0.724606899,14.0255692 L1.26172229,14.0255692 L1.26172229,11.7824478 L0.724606899,11.7824478 L0.724606899,10.3919118 L1.26172229,10.3919118 L1.26172229,10.295612 C1.26172229,9.97765655 1.00147907,9.7178131 0.683034501,9.7178131 C0.364589933,9.7178131 0.103515271,9.97765655 0.103515271,10.295612 L0.103515271,15.5124051 C0.103515271,15.8303605 0.364589933,16.090204 0.683034501,16.090204 C1.00147907,16.090204 1.26172229,15.8303605 1.26172229,15.5124051 L1.26172229,15.4161053 L0.724606899,15.4161053 L0.724606899,14.0255692 Z" id="Fill-27" fill="#83D9FF" fill-rule="nonzero"></path>
                    <path d="M0.724606899,14.0255692 L1.26172229,14.0255692 L1.26172229,11.7824478 L0.724606899,11.7824478 L0.724606899,10.3919118 L1.26172229,10.3919118 L1.26172229,10.295612 C1.26172229,9.97765655 1.00147907,9.7178131 0.683034501,9.7178131 C0.364589933,9.7178131 0.103515271,9.97765655 0.103515271,10.295612 L0.103515271,15.5124051 C0.103515271,15.8303605 0.364589933,16.090204 0.683034501,16.090204 C1.00147907,16.090204 1.26172229,15.8303605 1.26172229,15.5124051 L1.26172229,15.4161053 L0.724606899,15.4161053 L0.724606899,14.0255692 Z" id="Stroke-29" stroke="#83D9FF" stroke-width="0.25"></path>
                    <polygon id="Fill-31" fill="#83D9FF" fill-rule="nonzero" points="0.724606899 11.7822818 1.26172229 11.7822818 3.5764734 11.7822818 3.99302884 11.7822818 3.99302884 10.3917457 3.5764734 10.3917457 1.26172229 10.3917457 0.724606899 10.3917457"></polygon>
                    <polygon id="Stroke-33" stroke="#83D9FF" stroke-width="0.25" points="0.724606899 11.7822818 1.26172229 11.7822818 3.5764734 11.7822818 3.99302884 11.7822818 3.99302884 10.3917457 3.5764734 10.3917457 1.26172229 10.3917457 0.724606899 10.3917457"></polygon>
                    <polygon id="Fill-35" fill="#83D9FF" fill-rule="nonzero" points="3.99311199 14.0255692 3.57655656 14.0255692 1.26180543 14.0255692 0.724690045 14.0255692 0.724690045 15.4161053 1.26180543 15.4161053 3.57655656 15.4161053 3.99311199 15.4161053"></polygon>
                    <polygon id="Stroke-37" stroke="#83D9FF" stroke-width="0.25" points="3.99311199 14.0255692 3.57655656 14.0255692 1.26180543 14.0255692 0.724690045 14.0255692 0.724690045 15.4161053 1.26180543 15.4161053 3.57655656 15.4161053 3.99311199 15.4161053"></polygon>
                </g>
            </g>
        </g>
    </g>
</svg>