<?xml version="1.0" encoding="UTF-8"?>
<svg width="108px" height="108px" viewBox="0 0 108 108" version="1.1" xmlns="http://www.w3.org/2000/svg" xmlns:xlink="http://www.w3.org/1999/xlink">
    <!-- Generator: Sketch 48.2 (47327) - http://www.bohemiancoding.com/sketch -->
    <title>Artboard 8</title>
    <desc>Created with Sketch.</desc>
    <defs>
        <linearGradient x1="94.3373843%" y1="73.7528935%" x2="35.546875%" y2="50%" id="linearGradient-1">
            <stop stop-color="#77ACFF" offset="0%"></stop>
            <stop stop-color="#A887FF" offset="100%"></stop>
        </linearGradient>
        <circle id="path-2" cx="51" cy="51" r="51"></circle>
        <filter x="-14.2%" y="-12.3%" width="128.4%" height="128.4%" filterUnits="objectBoundingBox" id="filter-3">
            <feOffset dx="0" dy="2" in="SourceAlpha" result="shadowOffsetOuter1"></feOffset>
            <feGaussianBlur stdDeviation="4.5" in="shadowOffsetOuter1" result="shadowBlurOuter1"></feGaussianBlur>
            <feColorMatrix values="0 0 0 0 0.584313725   0 0 0 0 0.584313725   0 0 0 0 1  0 0 0 0.698935688 0" type="matrix" in="shadowBlurOuter1"></feColorMatrix>
        </filter>
    </defs>
    <g id="Page-1" stroke="none" stroke-width="1" fill="none" fill-rule="evenodd">
        <g id="Artboard-8">
            <g id="Group-4" transform="translate(3.000000, 3.000000)">
                <g id="Group-22">
                    <g id="Oval-9">
                        <use fill="black" fill-opacity="1" filter="url(#filter-3)" xlink:href="#path-2"></use>
                        <use fill="url(#linearGradient-1)" fill-rule="evenodd" xlink:href="#path-2"></use>
                    </g>
                </g>
                <g id="Page-1" transform="translate(26.000000, 21.000000)">
                    <path d="M12.9900249,19.2336105 C12.9900249,19.1524407 13,19.07919 13,19 L9.00997506,19 C9.00997506,19.07919 9,19.1544205 9,19.2336105 L9,24.1671475 L9.99950125,24.1671475 L9.99950125,27.4832287 L9,27.4832287 L9,32.8325132 L9.99950125,32.8325132 L9.99950125,36.1485944 L9,36.1485944 L9,54 L12.9900249,54 L12.9900249,19.2336105 Z" id="Fill-1" fill="#FFFFFF"></path>
                    <path d="M40.8069825,32.8332956 L42,32.8332956 L42,27.4837086 L40.8069825,27.4837086 L40.8069825,24.1674398 L42,24.1674398 L42,19.2336237 C42,19.1544292 41.99202,19.0791945 41.9900249,19 L38,19 C38,19.0791945 38.0099751,19.1524494 38.0099751,19.2336237 L38.0099751,54 L42,54 L42,36.1495644 L40.8069825,36.1495644 L40.8069825,32.8332956 Z" id="Fill-3" fill="#FFFFFF"></path>
                    <path d="M25,5.70235935 C30.0243135,5.70235935 35.0718519,8.31578947 36.9724205,14 L41,14 C39.345228,7.55353902 34.5531632,3.06319089 28.0366517,2 C28.0579412,2.15245009 28.0811661,2.30490018 28.0811661,2.46328989 L21.9188339,2.46328989 C21.9188339,2.30490018 21.9420588,2.15245009 21.9633483,2 C15.4468368,3.06517076 10.6528366,7.55353902 9,14 L13.0275795,14 C14.9262127,8.31578947 19.9737511,5.70235935 25,5.70235935" id="Fill-5" fill="#FFFFFF"></path>
                    <path d="M36.5370863,20 L40.340814,20 L41.6359833,20 C42.9368581,20 44,18.8741456 44,17.4989948 C44,16.123844 42.9368581,15 41.6359833,15 L39.7227083,15 L35.7649296,15 L12.2369722,15 L8.27729175,15 L6.3659186,15 C5.06504374,15 4,16.123844 4,17.4989948 C4,18.8741456 5.06504374,20 6.3659186,20 L7.659186,20 L11.4629137,20 L36.5370863,20 Z" id="Fill-7" fill="#FFFFFF"></path>
                    <path d="M11.8969128,55 L7.92507673,55 L5.46849612,55 C4.11012818,55 3,56.1258544 3,57.5010052 C3,58.876156 4.11012818,60 5.46849612,60 L44.529518,60 C45.8878859,60 47,58.876156 47,57.5010052 C47,56.1258544 45.8878859,55 44.529518,55 L42.0729374,55 L38.1011013,55 L11.8969128,55 Z" id="Fill-9" fill="#FFFFFF"></path>
                    <path d="M25.5009813,27.9251603 C27.4714117,27.9251603 29.0748397,29.5285883 29.0748397,31.4990187 C29.0748397,33.4694492 27.4714117,35.0748397 25.5009813,35.0748397 C23.5305508,35.0748397 21.9251603,33.4694492 21.9251603,31.4990187 C21.9251603,29.5285883 23.5305508,27.9251603 25.5009813,27.9251603 M25.5009813,39 C29.6361376,39 33,35.6361376 33,31.4990187 C33,27.3638624 29.6361376,24 25.5009813,24 C21.3658249,24 18,27.3638624 18,31.4990187 C18,35.6361376 21.3658249,39 25.5009813,39" id="Fill-11" fill="#FFFFFF"></path>
                    <path d="M28,3 C28,2.84934087 27.977394,2.70433145 27.9566719,2.55932203 C27.7400314,1.11864407 26.500471,0 25.0009419,0 C23.5014129,0 22.2618524,1.11864407 22.0452119,2.55932203 C22.0244898,2.70433145 22,2.84934087 22,3 L28,3 Z" id="Fill-13" fill="#FFFFFF"></path>
                    <path d="M48.5,24 C47.674569,24 47,24.611567 47,25.3599062 L47,25.5865572 L48.3922414,25.5865572 L48.3922414,28.85932 L47,28.85932 L47,34.1387261 L48.3922414,34.1387261 L48.3922414,37.4114889 L47,37.4114889 L47,37.6381399 C47,38.3864791 47.674569,39 48.5,39 C49.325431,39 50,38.3864791 50,37.6381399 L50,25.3599062 C50,24.611567 49.325431,24 48.5,24" id="Fill-15" fill="#FFFFFF"></path>
                    <path d="M48.5,24 C47.674569,24 47,24.611567 47,25.3599062 L47,25.5865572 L48.3922414,25.5865572 L48.3922414,28.85932 L47,28.85932 L47,34.1387261 L48.3922414,34.1387261 L48.3922414,37.4114889 L47,37.4114889 L47,37.6381399 C47,38.3864791 47.674569,39 48.5,39 C49.325431,39 50,38.3864791 50,37.6381399 L50,25.3599062 C50,24.611567 49.325431,24 48.5,24 Z" id="Stroke-17" stroke="#FFFFFF" stroke-width="0.25"></path>
                    <polygon id="Fill-19" fill="#FFFFFF" points="40 28 41.064869 28 45.8496566 28 47 28 47 25 45.8496566 25 41.064869 25 40 25"></polygon>
                    <polygon id="Stroke-21" stroke="#FFFFFF" stroke-width="0.25" points="40 28 41.064869 28 45.8496566 28 47 28 47 25 45.8496566 25 41.064869 25 40 25"></polygon>
                    <polygon id="Fill-23" fill="#FFFFFF" points="47 33 45.8496566 33 41.064869 33 40 33 40 36 41.064869 36 45.8496566 36 47 36"></polygon>
                    <polygon id="Stroke-25" stroke="#FFFFFF" stroke-width="0.25" points="47 33 45.8496566 33 41.064869 33 40 33 40 36 41.064869 36 45.8496566 36 47 36"></polygon>
                    <path d="M1.60875808,34.1400469 L3,34.1400469 L3,28.8599531 L1.60875808,28.8599531 L1.60875808,25.5867639 L3,25.5867639 L3,25.3600834 C3,24.6116467 2.32591529,24 1.50107681,24 C0.676238335,24 0,24.6116467 0,25.3600834 L0,37.6399166 C0,38.3883533 0.676238335,39 1.50107681,39 C2.32591529,39 3,38.3883533 3,37.6399166 L3,37.4132361 L1.60875808,37.4132361 L1.60875808,34.1400469 Z" id="Fill-27" fill="#FFFFFF"></path>
                    <path d="M1.60875808,34.1400469 L3,34.1400469 L3,28.8599531 L1.60875808,28.8599531 L1.60875808,25.5867639 L3,25.5867639 L3,25.3600834 C3,24.6116467 2.32591529,24 1.50107681,24 C0.676238335,24 0,24.6116467 0,25.3600834 L0,37.6399166 C0,38.3883533 0.676238335,39 1.50107681,39 C2.32591529,39 3,38.3883533 3,37.6399166 L3,37.4132361 L1.60875808,37.4132361 L1.60875808,34.1400469 Z" id="Stroke-29" stroke="#FFFFFF" stroke-width="0.25"></path>
                    <polygon id="Fill-31" fill="#FFFFFF" points="2 28 3.15034342 28 8.1078606 28 9 28 9 25 8.1078606 25 3.15034342 25 2 25"></polygon>
                    <polygon id="Stroke-33" stroke="#FFFFFF" stroke-width="0.25" points="2 28 3.15034342 28 8.1078606 28 9 28 9 25 8.1078606 25 3.15034342 25 2 25"></polygon>
                    <polygon id="Fill-35" fill="#FFFFFF" points="9 33 8.1078606 33 3.15034342 33 2 33 2 36 3.15034342 36 8.1078606 36 9 36"></polygon>
                    <polygon id="Stroke-37" stroke="#FFFFFF" stroke-width="0.25" points="9 33 8.1078606 33 3.15034342 33 2 33 2 36 3.15034342 36 8.1078606 36 9 36"></polygon>
                </g>
            </g>
        </g>
    </g>
</svg>