<?xml version="1.0" encoding="UTF-8"?>
<svg width="512px" height="182px" viewBox="0 0 512 182" version="1.1" xmlns="http://www.w3.org/2000/svg" xmlns:xlink="http://www.w3.org/1999/xlink">
    <!-- Generator: Sketch 48.2 (47327) - http://www.bohemiancoding.com/sketch -->
    <title>wave(0.3)</title>
    <desc>Created with Sketch.</desc>
    <defs>
        <polygon id="path-1" points="0.000152833344 9.3029841e-05 511.813681 9.3029841e-05 511.813681 150.657494 0.000152833344 150.657494"></polygon>
    </defs>
    <g id="Page-1" stroke="none" stroke-width="1" fill="none" fill-rule="evenodd">
        <g id="wave(0.3)">
            <g id="Page-1" transform="translate(0.000000, 31.000000)">
                <mask id="mask-2" fill="white">
                    <use xlink:href="#path-1"></use>
                </mask>
                <g id="Clip-2"></g>
                <path d="M3.00854786,55.0046381 C30.6226802,46.2548171 59.2508514,41.2563424 88.193793,45.0794086 C116.443443,48.8098366 143.714914,60.4384125 172.580159,58.9801089 C213.836999,56.8902724 248.322291,28.3856187 286.512112,12.6361401 C314.959988,0.903968872 346.927116,-3.76678599 376.852221,3.40221012 C424.307847,14.7717977 482.449731,66.0853541 511.802073,56.036607 C511.763225,87.3243891 511.841918,119.37021 511.802073,150.657992 C341.164626,150.650023 170.679583,150.642054 0.0421354086,150.634086 C-0.103296498,119.10923 0.187567315,87.5435331 0.0421354086,56.018677 C0.133777432,55.9887938 2.91690584,55.0335253 3.00854786,55.0046381" id="Fill-1" fill="#FFFFFF" opacity="0.3" mask="url(#mask-2)"></path>
            </g>
        </g>
    </g>
</svg>