<?xml version="1.0" encoding="UTF-8"?>
<svg width="1024px" height="158px" viewBox="0 0 1024 158" version="1.1" xmlns="http://www.w3.org/2000/svg" xmlns:xlink="http://www.w3.org/1999/xlink">
    <!-- Generator: Sketch 48.2 (47327) - http://www.bohemiancoding.com/sketch -->
    <title>wave</title>
    <desc>Created with Sketch.</desc>
    <defs>
        <polygon id="path-1" points="0 0 1023.33515 0 1023.33515 73.8909046 0 73.8909046"></polygon>
    </defs>
    <g id="Page-1" stroke="none" stroke-width="1" fill="none" fill-rule="evenodd">
        <g id="wave">
            <path d="M864.774619,84.294 C775.094089,143.358 695.225217,104.937 628.457496,81.331 C575.184667,62.495 552.309737,104.114 511.636661,108.247 L511.636661,108.273 C462.792685,108.273 425.174849,57 356.105479,57 C287.035113,57 243.68758,136.644 102.744799,98.451 C48.2139883,83.675 40.6720797,104.114 0,108.247 L0,158.546 L511.636661,158.546 L1024,158.546 L1024,108.273 C975.156024,108.273 922.51418,46.267 864.774619,84.294" id="Page-1" fill="#FFFFFF" opacity="0.2"></path>
            <g id="Page-1" opacity="0.3" transform="translate(0.000000, 84.000000)">
                <mask id="mask-2" fill="white">
                    <use xlink:href="#path-1"></use>
                </mask>
                <g id="Clip-2"></g>
                <path d="M897.936445,16.3259833 C831.280911,39.8172797 739.744865,-0.000298542274 670.790555,-0.000298542274 C601.836246,-0.000298542274 560.594622,23.8621854 511.832717,23.8621854 C471.227982,19.749268 439.287939,-2.41749582 386.104624,16.3259833 C319.448095,39.8172797 227.912048,-0.000298542274 158.957739,-0.000298542274 C90.0044253,-0.000298542274 48.7618052,23.8621854 -9.95140913e-05,23.8621854 L-9.95140913e-05,73.8909046 L511.832717,73.8909046 L1023.33515,73.8909046 L1023.33515,23.8363118 C982.730412,19.7233944 951.119761,-2.41749582 897.936445,16.3259833" id="Fill-1" fill="#FFFFFF" mask="url(#mask-2)"></path>
            </g>
        </g>
    </g>
</svg>