<?xml version="1.0" encoding="UTF-8"?>
<svg width="26px" height="26px" viewBox="0 0 26 26" version="1.1" xmlns="http://www.w3.org/2000/svg" xmlns:xlink="http://www.w3.org/1999/xlink">
    <title>ic-home</title>
    <defs></defs>
    <g id="Page-1" stroke="none" stroke-width="1" fill="none" fill-rule="evenodd">
        <g id="Artboard-6" fill="#C4EBFF" fill-rule="nonzero">
            <g id="home" transform="translate(0.000000, 1.000000)">
                <path d="M26.7128428,9.70577876 L13.9144444,0.138345164 C13.667648,-0.0461150547 13.3323634,-0.0461150547 13.0856725,0.138345164 L0.287168638,9.70577876 C-0.0254401629,9.93950374 -0.0933619132,10.3876785 0.135557588,10.7068496 C0.36447709,11.0260207 0.803489956,11.0952606 1.11604602,10.8616433 L13.5000057,1.60395859 L25.8839654,10.8615895 C26.0088402,10.9550041 26.1539649,10.9999616 26.297824,10.9999616 C26.5138236,10.9999616 26.7269756,10.8984707 26.8644011,10.7067958 C27.0933733,10.3876785 27.0254516,9.93950374 26.7128428,9.70577876 Z" id="Shape"></path>
                <path d="M23.2999614,11 C22.9134248,11 22.5999754,11.3076691 22.5999754,11.687193 L22.5999754,22.6255106 L17.0001929,22.6255106 L17.0001929,16.6546849 C17.0001929,14.7599062 15.429947,13.2184614 13.5,13.2184614 C11.570053,13.2184614 9.99980706,14.7600095 9.99980706,16.6546849 L9.99980706,22.6255623 L4.39997194,22.6255623 L4.39997194,11.6872447 C4.39997194,11.3077207 4.08652261,11.0000517 3.69998597,11.0000517 C3.31344933,11.0000517 3,11.3077207 3,11.6872447 L3,23.312807 C3,23.6923309 3.31344933,24 3.69998597,24 L10.699793,24 C11.0679131,24 11.3691549,23.7207939 11.3970428,23.3663236 C11.3987266,23.3502583 11.399779,23.3326949 11.399779,23.312807 L11.399779,16.6547365 C11.399779,15.5178177 12.341916,14.5928991 13.5,14.5928991 C14.658084,14.5928991 15.600221,15.5178693 15.600221,16.6547365 L15.600221,23.312807 C15.600221,23.3325916 15.6012734,23.349845 15.6029572,23.3657037 C15.6305293,23.7204323 15.9318764,24 16.300207,24 L23.300014,24 C23.6866033,24 24,23.6923309 24,23.312807 L24,11.6872447 C23.9999474,11.3076691 23.6865507,11 23.2999614,11 Z" id="Shape"></path>
            </g>
        </g>
    </g>
</svg>