<svg xmlns="http://www.w3.org/2000/svg" width="20" height="20" viewBox="0 0 20 20">
    <g fill="#5E5E5E" fill-rule="nonzero">
        <path d="M16.455 7.455c-.364 0-.546.272-.546.545v10a.391.391 0 0 1-.364.364H1.455A.391.391 0 0 1 1.09 18V4c.09-.182.182-.364.364-.364h10.09c.364 0 .546-.272.546-.545s-.273-.546-.546-.546H1.455C.636 2.455 0 3.182 0 4v14c0 .818.636 1.455 1.455 1.455h14c.818 0 1.454-.637 1.454-1.455V8c.091-.273-.182-.545-.454-.545z"/>
        <path d="M18.545 2.273L17.273 1c-.546-.545-1.546-.545-2.091 0L6 10.09c-.273.274-.364.546-.455.91l-.272 1.91c-.091.363.09.726.272 1 .273.272.546.454.91.454h.09l1.728-.182c.363 0 .636-.182.909-.455l9.454-9.272c.273-.273.455-.728.455-1.091 0-.455-.182-.819-.546-1.091zM8.364 12.818c-.091.091-.091.091-.182.091l-1.637.182.273-1.91c0-.09 0-.09.091-.181l7.273-7.182 1.636 1.637-7.454 7.363zm9.363-9.273l-1.09 1-1.728-1.636L16 1.82h.273c.09 0 .182 0 .182.09l1.272 1.182c.091.09.091.182.091.182s0 .182-.09.272z"/>
    </g>
</svg>
