<?xml version="1.0" encoding="UTF-8"?>
<svg width="108px" height="108px" viewBox="0 0 108 108" version="1.1" xmlns="http://www.w3.org/2000/svg" xmlns:xlink="http://www.w3.org/1999/xlink">
    <!-- Generator: Sketch 48.2 (47327) - http://www.bohemiancoding.com/sketch -->
    <title>Artboard 8</title>
    <desc>Created with Sketch.</desc>
    <defs>
        <linearGradient x1="94.3373843%" y1="73.7528935%" x2="35.546875%" y2="50%" id="linearGradient-1">
            <stop stop-color="#77ACFF" offset="0%"></stop>
            <stop stop-color="#A887FF" offset="100%"></stop>
        </linearGradient>
        <circle id="path-2" cx="51" cy="51" r="51"></circle>
        <filter x="-14.2%" y="-12.3%" width="128.4%" height="128.4%" filterUnits="objectBoundingBox" id="filter-3">
            <feOffset dx="0" dy="2" in="SourceAlpha" result="shadowOffsetOuter1"></feOffset>
            <feGaussianBlur stdDeviation="4.5" in="shadowOffsetOuter1" result="shadowBlurOuter1"></feGaussianBlur>
            <feColorMatrix values="0 0 0 0 0.584313725   0 0 0 0 0.584313725   0 0 0 0 1  0 0 0 0.698935688 0" type="matrix" in="shadowBlurOuter1"></feColorMatrix>
        </filter>
        <polygon id="path-4" points="0.000170613949 0.111288436 51.9308247 0.111288436 51.9308247 17.4316245 0.000170613949 17.4316245"></polygon>
    </defs>
    <g id="Page-1" stroke="none" stroke-width="1" fill="none" fill-rule="evenodd">
        <g id="Artboard-8">
            <g id="Group-22" transform="translate(3.000000, 3.000000)">
                <g id="Oval-9">
                    <use fill="black" fill-opacity="1" filter="url(#filter-3)" xlink:href="#path-2"></use>
                    <use fill="url(#linearGradient-1)" fill-rule="evenodd" xlink:href="#path-2"></use>
                </g>
            </g>
            <g id="Group-2" transform="translate(28.000000, 19.000000)">
                <g id="Page-1">
                    <path d="M39.8329312,57.445048 C36.4418003,59.1099212 33.0463605,60.7618884 29.6466117,62.4138557 L29.0778325,62.6891835 L29.075678,50.8199712 C32.1522567,49.3357819 35.2223721,47.8429886 38.2946418,46.3501953 L39.8437035,45.5908927 L39.8437035,53.9131077 C39.845858,55.0897041 39.8480125,56.2684516 39.8329312,57.445048 M26.9966174,47.2235009 C23.6011776,45.5844397 20.2122012,43.9346235 16.8232248,42.2805052 L20.257445,40.607028 C22.5067084,39.5100186 24.7559719,38.4130091 26.9879996,37.3461136 C26.990154,37.3461136 26.994463,37.3439626 26.9966174,37.3439626 C30.3662037,38.9636648 33.727172,40.602726 37.0859859,42.2439383 L37.1721646,42.2848072 L33.173474,44.2379143 C31.1181126,45.2381288 29.0605967,46.2383434 26.9966174,47.2235009 M24.9154024,60.3166317 L24.9154024,62.6870325 C21.3303695,60.9468744 17.7474911,59.2045652 14.1624581,57.44935 C14.1516858,53.4979649 14.1516858,49.5444288 14.1559947,45.5930437 L24.9240203,50.8285752 C24.9154024,53.9905437 24.9154024,57.1525122 24.9154024,60.3166317 M42.4656898,40.2413582 C37.6935456,37.9440913 32.9343282,35.6253144 28.1772653,33.2957825 C27.3714947,32.9043007 26.6195857,32.9021497 25.8353598,33.2850275 C21.0653701,35.6210124 16.288917,37.9505443 11.503846,40.2542642 C10.4869376,40.74039 9.99571917,41.5276556 10.0000281,42.6590811 C10.0172638,47.9032166 10.0172638,53.1473521 10.0000281,58.3893366 C9.99571917,59.4841951 10.4955555,60.2800647 11.4866103,60.7575864 C16.2393642,63.0484004 20.9856548,65.3585733 25.721173,67.6838032 C26.1542209,67.8946011 26.5721875,68 26.9987719,68 C27.4339742,68 27.8627131,67.8924501 28.3151512,67.6730482 C33.0700596,65.3435163 37.829277,63.0225884 42.5949578,60.7167175 C43.5299964,60.2628567 44.0018247,59.503554 43.9932068,58.4581685 C43.98028,56.5093635 43.9824344,54.5605584 43.9845889,52.6117533 L43.9845889,50.5166803 L43.9824344,48.3484734 C43.9781255,46.4620473 43.9716621,44.5756212 43.9996702,42.6891951 C44.0147515,41.5470146 43.5127607,40.746843 42.4656898,40.2413582" id="Fill-1" fill="#FFFFFF"></path>
                    <g id="Group-5">
                        <mask id="mask-5" fill="white">
                            <use xlink:href="#path-4"></use>
                        </mask>
                        <g id="Clip-4"></g>
                        <path d="M51.2618519,13.0238967 C50.6210735,12.2280794 49.9717513,11.4343619 49.2711668,10.6889393 C43.0043531,4.01373295 35.3342346,0.322316509 25.7780914,0.110238545 C24.6716806,0.194229818 23.3260457,0.221526982 22.0039061,0.406307782 C15.901559,1.25671942 10.4848448,3.67776785 5.8712397,7.66945309 C3.97453538,9.30938269 2.31064723,11.2243837 0.665982443,13.1204867 C-0.397709849,14.3446595 -0.122175099,16.0580815 1.03336211,16.9462892 C2.07996698,17.7526054 3.46832037,17.5489265 4.53842045,16.1210749 C6.32619243,13.7378225 8.5283345,11.7640276 10.9889239,10.0527055 C19.7355503,3.96753775 31.2546116,3.77435782 40.2062871,9.55715695 C43.1132855,11.4343619 45.569603,13.7630199 47.7076673,16.438142 C48.3035913,17.1814647 49.0597099,17.6014211 50.0422369,17.3662455 C51.0696184,17.1184713 51.618552,16.4024457 51.85564,15.4155482 C52.0692328,14.5147418 51.8214652,13.7210243 51.2618519,13.0238967" id="Fill-3" fill="#FFFFFF" mask="url(#mask-5)"></path>
                    </g>
                    <path d="M25.5477249,11.0103497 C24.8571851,11.0103497 24.1666454,10.9820412 23.4803292,11.01906 C22.9017118,11.0495461 22.3209826,11.1192285 21.7550357,11.2389952 C16.0047615,12.4562607 11.3356993,15.4591391 7.78797225,20.291182 C7.51133402,20.6679028 7.28326585,21.1121285 7.13333215,21.5607093 C6.7215424,22.8041057 7.2959363,24.1803342 8.41093623,24.7443266 C9.47103085,25.2778329 10.4741084,24.9773273 11.2829057,23.8340995 C12.8392598,21.6391021 14.8031801,19.936237 17.0880853,18.5904946 C22.9312762,15.145568 30.3941734,15.5810834 35.707317,19.8382461 C37.1728661,21.01196 38.4124588,22.4970674 39.7069569,23.8885389 C40.3489265,24.5788308 40.9887844,25.1602438 41.9876385,24.9359534 C43.8417483,24.5222138 44.6378751,22.2488236 43.4130646,20.5982204 C38.9171652,14.533669 33.0549687,11.1039855 25.5477249,11.0103497" id="Fill-6" fill="#FFFFFF"></path>
                    <path d="M19.309279,31.9464392 C20.4805965,30.4171987 21.9656981,29.2548054 23.8097171,28.7194646 C27.8093901,27.559204 31.0847806,28.7877152 33.6982155,31.9336422 C34.5385551,32.9446045 35.4025361,33.217607 36.4255583,32.8336973 C37.338971,32.4924442 37.9837329,31.479349 37.9944789,30.2764318 C38.0718504,29.2164144 37.3217773,28.4763217 36.6383297,27.6957053 C31.0675869,21.3462648 21.5594981,21.4486407 16.1434981,27.9260511 C15.8232664,28.3099608 15.496587,28.7109332 15.2795172,29.1524294 C14.5616822,30.6134193 15.2902632,32.4284592 16.7366791,32.8763539 C17.8284759,33.2133413 18.6559203,32.7995719 19.309279,31.9464392" id="Fill-8" fill="#FFFFFF"></path>
                </g>
            </g>
        </g>
    </g>
</svg>