<?xml version="1.0" encoding="UTF-8"?>
<svg width="35px" height="35px" viewBox="0 0 35 35" version="1.1" xmlns="http://www.w3.org/2000/svg" xmlns:xlink="http://www.w3.org/1999/xlink">
    <!-- Generator: Sketch 48.2 (47327) - http://www.bohemiancoding.com/sketch -->
    <title>Artboard 3</title>
    <desc>Created with Sketch.</desc>
    <defs>
        <polygon id="path-1" points="0.00025 0.231879433 23.1841667 0.231879433 23.1841667 20.3366294 0.00025 20.3366294"></polygon>
        <polygon id="path-3" points="0 20.1826202 23.1841667 20.1826202 23.1841667 0.0776201741 0 0.0776201741"></polygon>
        <polygon id="path-5" points="0 20.1826202 23.1841667 20.1826202 23.1841667 0.0776201741 0 0.0776201741"></polygon>
        <polygon id="path-7" points="0 20.1826202 23.1841667 20.1826202 23.1841667 0.0776201741 0 0.0776201741"></polygon>
        <polygon id="path-9" points="0 20.1826202 23.1841667 20.1826202 23.1841667 0.0776201741 0 0.0776201741"></polygon>
    </defs>
    <g id="Page-1" stroke="none" stroke-width="1" fill="none" fill-rule="evenodd">
        <g id="Artboard-3">
            <g id="照明灯-135px">
                <circle id="Oval-9" fill="#FFFFFF" fill-rule="nonzero" cx="17.5" cy="17.5" r="17.5"></circle>
                <g id="Page-1" transform="translate(5.962963, 7.259259)">
                    <g id="Group-3" transform="translate(0.000000, 0.105000)">
                        <g id="Fill-1-Clipped">
                            <mask id="mask-2" fill="white">
                                <use xlink:href="#path-1"></use>
                            </mask>
                            <g id="path-1"></g>
                            <path d="M20.8219167,16.9782961 C20.8219167,17.5274628 20.37525,17.9749628 19.82525,17.9749628 L3.35858333,17.9749628 C2.80941666,17.9749628 2.36275,17.5274628 2.36275,16.9782961 L2.36275,13.3699628 C2.36275,12.8207961 2.80941666,12.3741294 3.35858333,12.3741294 L19.82525,12.3741294 C20.37525,12.3741294 20.8219167,12.8207961 20.8219167,13.3699628 L20.8219167,16.9782961 Z M3.92358333,4.59246278 C3.92358333,3.48996278 4.81941667,2.59329609 5.92191667,2.59329609 C7.02358334,2.59329609 7.91941666,3.48996278 7.91941666,4.59246278 C7.91941666,5.69412944 7.02358334,6.5907961 5.92191667,6.5907961 C4.81941667,6.5907961 3.92358333,5.69412944 3.92358333,4.59246278 Z M15.4294167,4.59246278 C15.4294167,3.48996278 16.3260833,2.59329609 17.42775,2.59329609 C18.53025,2.59329609 19.4260833,3.48996278 19.4260833,4.59246278 C19.4260833,5.69412944 18.53025,6.5907961 17.42775,6.5907961 C16.3260833,6.5907961 15.4294167,5.69412944 15.4294167,4.59246278 Z M19.82525,10.0124628 L18.5585833,10.0124628 L18.5585833,8.78496277 C20.4135833,8.2832961 21.7885833,6.6032961 21.7885833,4.59246278 C21.7885833,2.18746277 19.83275,0.231629433 17.42775,0.231629433 C15.0235833,0.231629433 13.0669167,2.18746277 13.0669167,4.59246278 C13.0669167,6.56662943 14.3935833,8.2182961 16.1960833,8.75412943 L16.1960833,10.0124628 L7.05275,10.0124628 L7.05275,8.78496277 C8.90691667,8.2832961 10.2819167,6.6032961 10.2819167,4.59246278 C10.2819167,2.18746277 8.32608334,0.231629433 5.92191667,0.231629433 C3.51691667,0.231629433 1.56108333,2.18746277 1.56108333,4.59246278 C1.56108333,6.56662943 2.88775,8.2182961 4.69025,8.75412943 L4.69025,10.0124628 L3.35858333,10.0124628 C1.50691667,10.0124628 0.00025,11.5182961 0.00025,13.3699628 L0.00025,16.9782961 C0.00025,18.8307961 1.50691667,20.3366294 3.35858333,20.3366294 L19.82525,20.3366294 C21.67775,20.3366294 23.1844167,18.8307961 23.1844167,16.9782961 L23.1844167,13.3699628 C23.1844167,11.5182961 21.67775,10.0124628 19.82525,10.0124628 Z" id="Fill-1" fill="#83D9FF" fill-rule="nonzero" mask="url(#mask-2)"></path>
                        </g>
                    </g>
                    <g id="Fill-4-Clipped" transform="translate(0.000000, 0.259259)">
                        <mask id="mask-4" fill="white">
                            <use xlink:href="#path-3"></use>
                        </mask>
                        <g id="path-3"></g>
                        <polygon id="Fill-4" fill="#83D9FF" fill-rule="nonzero" mask="url(#mask-4)" points="4.98833334 16.9542868 7.06416667 16.9542868 7.06416667 13.2851202 4.98833334 13.2851202"></polygon>
                    </g>
                    <g id="Fill-6-Clipped" transform="translate(0.000000, 0.259259)">
                        <mask id="mask-6" fill="white">
                            <use xlink:href="#path-5"></use>
                        </mask>
                        <g id="path-3"></g>
                        <polygon id="Fill-6" fill="#83D9FF" fill-rule="nonzero" mask="url(#mask-6)" points="8.75250001 16.9542868 10.8283333 16.9542868 10.8283333 13.2851202 8.75250001 13.2851202"></polygon>
                    </g>
                    <g id="Fill-7-Clipped" transform="translate(0.000000, 0.259259)">
                        <mask id="mask-8" fill="white">
                            <use xlink:href="#path-7"></use>
                        </mask>
                        <g id="path-3"></g>
                        <polygon id="Fill-7" fill="#83D9FF" fill-rule="nonzero" mask="url(#mask-8)" points="12.5166667 16.9542868 14.5925 16.9542868 14.5925 13.2851202 12.5166667 13.2851202"></polygon>
                    </g>
                    <g id="Fill-8-Clipped" transform="translate(0.000000, 0.259259)">
                        <mask id="mask-10" fill="white">
                            <use xlink:href="#path-9"></use>
                        </mask>
                        <g id="path-3"></g>
                        <polygon id="Fill-8" fill="#83D9FF" fill-rule="nonzero" mask="url(#mask-10)" points="16.28 16.9542868 18.3558333 16.9542868 18.3558333 13.2851202 16.28 13.2851202"></polygon>
                    </g>
                </g>
            </g>
        </g>
    </g>
</svg>