<?xml version="1.0" encoding="UTF-8"?>
<svg width="35px" height="35px" viewBox="0 0 35 35" version="1.1" xmlns="http://www.w3.org/2000/svg" xmlns:xlink="http://www.w3.org/1999/xlink">
    <!-- Generator: Sketch 48.2 (47327) - http://www.bohemiancoding.com/sketch -->
    <title>Artboard 3</title>
    <desc>Created with Sketch.</desc>
    <defs>
        <polygon id="path-1" points="0.0703111111 0.0410697169 15.867842 0.0410697169 15.867842 22.1285403 0.0703111111 22.1285403"></polygon>
    </defs>
    <g id="Page-1" stroke="none" stroke-width="1" fill="none" fill-rule="evenodd">
        <g id="Artboard-3">
            <g id="逃生口-135px">
                <g id="Group-8-Copy-2" fill="#FEFEFE" fill-rule="nonzero">
                    <g id="Group-7-Copy-48">
                        <circle id="Oval-12" cx="17.5" cy="17.5" r="17.5"></circle>
                    </g>
                </g>
                <g id="Page-1" transform="translate(9.333333, 6.481481)">
                    <path d="M12.3530469,4.33502069 C13.1840593,4.33502069 13.857442,5.00345207 13.857442,5.82835403 C13.857442,6.65325599 13.1840593,7.32237364 12.3530469,7.32237364 C11.5220346,7.32237364 10.8486519,6.65325599 10.8486519,5.82835403 C10.8486519,5.00345207 11.5220346,4.33502069 12.3530469,4.33502069" id="Fill-1" fill="#83D9FF" fill-rule="nonzero"></path>
                    <g id="Group-5" transform="translate(0.518519, 0.126686)">
                        <g id="Fill-3-Clipped">
                            <mask id="mask-2" fill="white">
                                <use xlink:href="#path-1"></use>
                            </mask>
                            <g id="path-1"></g>
                            <path d="M13.3091259,0.0410697169 L2.62902715,0.0410697169 C1.21796543,0.0410697169 0.0703111111,1.1802854 0.0703111111,2.58097168 L0.0703111111,12.1229325 C0.404928396,12.054305 0.774804937,12.1304815 1.1246321,12.3500893 C1.3486321,12.4900893 1.57401481,12.6280305 1.79870617,12.7666579 L1.79870617,2.58097168 C1.79870617,2.12665795 2.17134815,1.75675599 2.62902715,1.75675599 L13.3091259,1.75675599 C13.7668049,1.75675599 14.1394469,2.12665795 14.1394469,2.58097168 L14.1394469,19.5882266 C14.1394469,20.0432266 13.7668049,20.4131285 13.3091259,20.4131285 L2.62902715,20.4131285 C2.17134815,20.4131285 1.79870617,20.0432266 1.79870617,19.5882266 L1.79870617,16.3977364 C1.65075556,16.2995991 1.50764444,16.204207 1.37144691,16.1129325 C0.988434567,15.8562658 0.637916049,15.6201874 0.222409877,15.3751874 C0.16502716,15.3408736 0.122854321,15.3003834 0.0703111111,15.2653834 L0.0703111111,19.5882266 C0.0703111111,20.9889129 1.21796543,22.1288148 2.62902715,22.1288148 L13.3091259,22.1288148 C14.7201877,22.1288148 15.867842,20.9889129 15.867842,19.5882266 L15.867842,2.58097168 C15.867842,1.1802854 14.7201877,0.0410697169 13.3091259,0.0410697169" id="Fill-3" fill="#83D9FF" fill-rule="nonzero" mask="url(#mask-2)"></path>
                        </g>
                    </g>
                    <path d="M11.7261926,18.4967756 C11.1074272,17.3383442 10.7548346,16.6431481 10.124316,15.5787364 C10.0869827,15.5169717 10.0254519,15.4744227 9.9556247,15.4545207 C8.47058766,15.035207 8.13597037,14.9851089 6.65093333,14.5671678 C6.57626667,14.5465795 6.41172345,14.4841285 6.30594567,14.5143246 C6.25824197,14.5280501 6.05498271,14.8547168 6.0273284,14.8965795 C5.64155063,15.4771678 5.42653826,15.8450109 5.07048889,16.3480501 C4.95848889,16.5058932 4.83058766,16.5896187 4.73103211,16.6486384 C4.57616789,16.7405991 4.00372345,16.7865795 3.48036544,16.4688344 C2.32648889,15.770207 1.74090864,15.3055991 0.8801679,14.7963834 C-0.794992593,13.8074619 0.226834568,12.2654031 1.42150123,13.0113834 C2.17853827,13.482854 2.93903211,13.950207 3.69814322,14.4182462 C3.82950123,14.4992266 4.00164937,14.4607952 4.08599507,14.3324619 C4.08599507,14.3324619 7.04777285,9.77903049 7.60500741,9.02275599 C6.45873581,9.05706973 5.31246419,9.03785403 4.16411852,8.94040306 C2.79522963,8.82510894 2.82011852,6.86510894 4.45518026,7.00510894 C6.21399507,7.15608932 7.42318026,7.21510894 9.29606914,7.01059914 C9.61340248,6.97559914 10.0109333,6.91452069 10.2314766,6.95638344 C10.5916741,7.01540306 10.9186864,7.19657952 11.1565136,7.43540306 C11.8402667,8.12236382 11.6985383,9.04608932 11.1419951,9.73716777 C10.3275753,10.7494227 9.58021729,11.8117756 8.92342715,12.9310893 C8.87088396,13.0209913 8.91858766,13.1362854 9.01952593,13.1651089 C9.97429137,13.4341285 10.0012543,13.397756 10.9560197,13.6667756 C11.2263407,13.7422658 11.4081679,13.895305 11.5215506,14.0799129 C11.5505877,14.1135403 11.580316,14.1444227 11.6058963,14.1842266 C12.3670815,15.3282462 13.0432296,16.5168736 13.6122173,17.7679521 C14.1404148,18.9291285 12.3947358,19.7965795 11.7261926,18.4967756" id="Fill-6" fill="#83D9FF" fill-rule="nonzero"></path>
                </g>
            </g>
        </g>
    </g>
</svg>