<?xml version="1.0" encoding="UTF-8"?>
<svg width="108px" height="108px" viewBox="0 0 108 108" version="1.1" xmlns="http://www.w3.org/2000/svg" xmlns:xlink="http://www.w3.org/1999/xlink">
    <!-- Generator: Sketch 48.2 (47327) - http://www.bohemiancoding.com/sketch -->
    <title>Artboard 8</title>
    <desc>Created with Sketch.</desc>
    <defs>
        <linearGradient x1="94.3373843%" y1="73.7528935%" x2="35.546875%" y2="50%" id="linearGradient-1">
            <stop stop-color="#77ACFF" offset="0%"></stop>
            <stop stop-color="#A887FF" offset="100%"></stop>
        </linearGradient>
        <circle id="path-2" cx="51" cy="51" r="51"></circle>
        <filter x="-14.2%" y="-12.3%" width="128.4%" height="128.4%" filterUnits="objectBoundingBox" id="filter-3">
            <feOffset dx="0" dy="2" in="SourceAlpha" result="shadowOffsetOuter1"></feOffset>
            <feGaussianBlur stdDeviation="4.5" in="shadowOffsetOuter1" result="shadowBlurOuter1"></feGaussianBlur>
            <feColorMatrix values="0 0 0 0 0.584313725   0 0 0 0 0.584313725   0 0 0 0 1  0 0 0 0.698935688 0" type="matrix" in="shadowBlurOuter1"></feColorMatrix>
        </filter>
    </defs>
    <g id="Page-1" stroke="none" stroke-width="1" fill="none" fill-rule="evenodd">
        <g id="Artboard-8">
            <g id="Group-2" transform="translate(3.000000, 3.000000)">
                <g id="Group-22">
                    <g id="Oval-9">
                        <use fill="black" fill-opacity="1" filter="url(#filter-3)" xlink:href="#path-2"></use>
                        <use fill="url(#linearGradient-1)" fill-rule="evenodd" xlink:href="#path-2"></use>
                    </g>
                </g>
                <g id="Group" transform="translate(20.000000, 23.000000)" fill="#FFFFFF">
                    <path d="M14.5771073,33.6849768 L13,33.6849768 L13,20.3150232 L14.5505268,20.3150232 L21.4880268,30.7200529 L21.6297893,30.7200529 L21.6297893,20.3150232 L23.2068966,20.3150232 L23.2068966,33.6849768 L21.6563697,33.6849768 L14.7188697,23.3170086 L14.5771073,23.3170086 L14.5771073,33.6849768 Z M37.4008621,33.6849768 L35.8060345,33.6849768 L35.8060345,27.5976175 L28.7887931,27.5976175 L28.7887931,33.6849768 L27.1939655,33.6849768 L27.1939655,20.3150232 L28.7887931,20.3150232 L28.7887931,26.0966248 L35.8060345,26.0966248 L35.8060345,20.3150232 L37.4008621,20.3150232 L37.4008621,33.6849768 Z M43.8687739,27.5234944 L43.8687739,26.0966248 L45.3838602,26.0966248 C46.1222099,26.0966248 46.726171,25.8742577 47.1957615,25.4295169 C47.665352,24.9847761 47.9001437,24.4165047 47.9001437,23.7246856 C47.9001437,23.1008131 47.6845488,22.5665145 47.2533525,22.1217737 C46.8221562,21.6770329 46.2196718,21.4546658 45.4458812,21.4546658 C44.6779974,21.4546658 44.0563162,21.6538696 43.580819,22.0522833 C43.1053217,22.4506969 42.8350897,23.0266894 42.7701149,23.780278 L41.2195881,23.780278 C41.3022833,22.6931338 41.7216597,21.7913118 42.4777299,21.0747849 C43.2338001,20.3582581 44.2586142,20 45.5522031,20 C46.8162579,20 47.7952951,20.3551696 48.4893439,21.0655195 C49.1833927,21.7758694 49.5274585,22.6004806 49.5215517,23.5393779 C49.5156449,24.3423821 49.2985733,25.0063949 48.8703305,25.5314361 C48.4420876,26.0564774 47.900147,26.4178239 47.2444923,26.6154864 L47.2444923,26.7637326 C48.0714441,26.8996257 48.7374256,27.2532511 49.2424569,27.8246195 C49.7474882,28.3959879 50,29.1480209 50,30.0807412 C50,31.1987702 49.5673335,32.1314765 48.7019875,32.8788882 C47.8366416,33.6262998 46.7690038,34 45.4990421,34 C44.1995465,34 43.1392921,33.6571841 42.3182471,32.971542 C41.4972022,32.2858999 41.0571523,31.3748127 40.9980843,30.2382528 L42.539751,30.2382528 C42.6106325,30.9424258 42.9133514,31.5029761 43.4479167,31.9199206 C43.9824819,32.3368651 44.6602769,32.5453342 45.4813218,32.5453342 C46.325994,32.5453342 47.017079,32.3137019 47.5545977,31.8504302 C48.0921164,31.3871585 48.3608716,30.7818259 48.3608716,30.0344143 C48.3608716,29.2622948 48.1009764,28.6507854 47.5811782,28.1998676 C47.0613799,27.7489499 46.3525747,27.5234944 45.4547414,27.5234944 L43.8687739,27.5234944 Z" id="NH3"></path>
                    <path d="M51.2893976,15.4420172 C51.2893976,11.8458369 49.9245108,8.57658217 47.1947372,5.63425287 C44.123742,2.36499809 40.0290816,0.403445224 35.5931996,0.0765197461 C28.427544,-0.577331209 21.6031101,3.01884905 18.5321148,8.57658217 C8.97790738,9.23043312 1.12980839,15.7689427 0.106143303,24.5959306 C-0.917521783,33.4229185 5.56569043,41.2691299 15.1198979,43.5576083 C15.8023413,43.5576083 16.4847847,43.8845338 16.8260064,44.5383847 C17.1672281,44.8653102 17.5084498,45.5191611 17.1672281,45.8460866 C17.1672281,45.8460866 17.1672281,46.1730121 17.1672281,46.1730121 C16.4847847,47.480714 14.4374545,49.1153414 12.0489026,50.0961178 C11.0252376,50.4230433 10.6840159,51.4038197 10.6840159,52.3845962 C10.6840159,53.3653726 11.7076809,54.346149 12.731346,54.346149 C13.7550111,54.6730745 15.4611196,55 16.8260064,55 C16.8260064,55 17.1672281,55 17.1672281,55 C21.9443318,54.6730745 26.0389921,53.6922981 30.1336525,51.4038197 C31.839761,50.4230433 33.5458694,49.1153414 34.9107562,47.8076395 C35.5931996,47.1537885 36.6168647,46.4999376 37.2993081,45.8460866 C39.3466383,44.2114592 41.0527467,44.2114592 44.4649637,44.2114592 C52.9955061,44.2114592 60.1611617,37.9998752 60.8436051,30.4805892 C61.8672701,24.2690051 57.7726098,18.057421 51.2893976,15.4420172 Z M55.8993877,29.9805873 C55.2169444,35.2113949 50.0986189,39.7883516 43.9566284,39.7883516 C40.5444115,39.7883516 37.4734162,39.7883516 34.0611993,42.4037554 C33.0375342,43.0576064 32.0138691,44.0383828 31.3314257,44.6922338 C29.9665389,45.6730102 28.9428738,46.9807121 27.577987,47.6345631 C25.1894352,48.942265 22.8008833,49.5961159 20.0711097,50.2499669 C20.4123314,49.5961159 21.0947748,48.942265 21.4359965,48.288414 C21.4359965,47.9614885 21.7772182,47.6345631 21.7772182,47.6345631 C22.8008833,45.0191592 21.7772182,42.4037554 19.7298881,41.0960535 C18.706223,40.4422026 17.6825579,39.7883516 16.3176711,39.4614261 C9.1520155,37.8267987 4.37491176,31.9421401 5.05735515,25.4036306 C5.73979855,18.5381955 12.2230108,13.6343134 20.0711097,13.6343134 C20.0711097,13.6343134 20.0711097,13.6343134 20.0711097,13.6343134 C21.0947748,13.6343134 22.1184399,12.9804624 22.4596616,11.999686 C24.1657701,7.4227293 29.2840955,4.4804 35.0848643,4.80732548 C38.4970813,5.13425096 41.2268549,6.44195287 43.6154067,8.73043121 C45.6627369,11.0189096 46.686402,13.6343134 46.3451803,16.2497172 C46.3451803,16.2497172 46.3451803,16.5766427 46.3451803,16.5766427 C46.3451803,17.5574191 47.0276237,18.5381955 48.0512888,18.865121 C52.8283925,20.4997484 56.2406094,25.0767051 55.8993877,29.9805873 Z" id="Shape" fill-rule="nonzero"></path>
                </g>
            </g>
        </g>
    </g>
</svg>