<?xml version="1.0" encoding="UTF-8"?>
<svg width="108px" height="108px" viewBox="0 0 108 108" version="1.1" xmlns="http://www.w3.org/2000/svg" xmlns:xlink="http://www.w3.org/1999/xlink">
    <!-- Generator: Sketch 48.2 (47327) - http://www.bohemiancoding.com/sketch -->
    <title>Artboard 8</title>
    <desc>Created with Sketch.</desc>
    <defs>
        <linearGradient x1="94.3373843%" y1="73.7528935%" x2="35.546875%" y2="50%" id="linearGradient-1">
            <stop stop-color="#77ACFF" offset="0%"></stop>
            <stop stop-color="#A887FF" offset="100%"></stop>
        </linearGradient>
        <circle id="path-2" cx="51" cy="51" r="51"></circle>
        <filter x="-14.2%" y="-12.3%" width="128.4%" height="128.4%" filterUnits="objectBoundingBox" id="filter-3">
            <feOffset dx="0" dy="2" in="SourceAlpha" result="shadowOffsetOuter1"></feOffset>
            <feGaussianBlur stdDeviation="4.5" in="shadowOffsetOuter1" result="shadowBlurOuter1"></feGaussianBlur>
            <feColorMatrix values="0 0 0 0 0.584313725   0 0 0 0 0.584313725   0 0 0 0 1  0 0 0 0.698935688 0" type="matrix" in="shadowBlurOuter1"></feColorMatrix>
        </filter>
        <polygon id="path-4" points="0 0 48 0 48 60 0 60"></polygon>
    </defs>
    <g id="Page-1" stroke="none" stroke-width="1" fill="none" fill-rule="evenodd">
        <g id="Artboard-8">
            <g id="Group-13" transform="translate(3.000000, 3.000000)">
                <g id="Group-22">
                    <g id="Oval-9">
                        <use fill="black" fill-opacity="1" filter="url(#filter-3)" xlink:href="#path-2"></use>
                        <use fill="url(#linearGradient-1)" fill-rule="evenodd" xlink:href="#path-2"></use>
                    </g>
                </g>
                <g id="Page-1" transform="translate(27.000000, 20.000000)">
                    <mask id="mask-5" fill="white">
                        <use xlink:href="#path-4"></use>
                    </mask>
                    <g id="Clip-2"></g>
                    <path d="M36.0293683,15.0855588 C36.0293683,15.4475386 36.0293683,15.7604363 36.0293683,16.071289 C36.0293683,18.8873691 36.0313329,21.7054942 36.0274038,24.5236193 C36.0274038,25.6606858 35.7700463,26.7036784 34.6718569,27.1944985 C34.1826813,27.4133224 33.5913486,27.4624044 33.0471653,27.4644495 C28.8331826,27.4849003 24.6192,27.47672 20.407182,27.47672 C19.2598786,27.47672 19.257914,27.4787651 19.257914,28.6301471 C19.257914,30.4298206 19.2559494,32.2315392 19.2598786,34.0312128 C19.2618431,34.3400204 19.289347,34.6467829 19.3089926,35.0189881 C19.6370742,35.0189881 19.8826443,35.0189881 20.1282144,35.0189881 C26.0435065,35.0189881 31.9587986,35.0230783 37.8740908,35.0148979 C41.1824109,35.0108078 43.194121,32.9145971 43.1980502,29.4829469 C43.2039439,24.9817181 43.2019793,20.4784441 43.1980502,15.9772152 C43.1980502,15.6745428 43.1685818,15.3718705 43.1528653,15.0855588 L36.0293683,15.0855588 Z M4.8164286,54.9074256 L14.3582997,54.9074256 L14.3582997,5.10759616 L4.8164286,5.10759616 L4.8164286,54.9074256 Z M19.1852253,22.4764907 L31.1867263,22.4764907 C31.1867263,22.1554126 31.1867263,21.8506952 31.1867263,21.5459777 C31.1867263,18.7278526 31.1808326,15.9097274 31.1867263,13.0895572 C31.19262,10.9013178 32.0963179,9.97284991 34.2141143,9.97080483 C37.8446224,9.96466958 41.4731659,9.96466958 45.1017094,9.97080483 C47.0721638,9.97284991 47.9915782,10.9074531 47.9915782,12.9423112 C47.9915782,18.8423773 48.0289048,24.7424433 47.9463933,30.6404642 C47.8835273,35.016943 44.3394599,39.1071101 40.1903078,39.7594918 C39.2551769,39.9046927 38.3043296,39.9824059 37.3593759,39.986496 C31.6660791,40.0069469 25.9708178,39.9967215 20.2755564,39.9967215 C19.9474748,39.9967215 19.6213577,39.9967215 19.1852253,39.9967215 C19.1852253,40.4384595 19.1852253,40.7779434 19.1852253,41.1153822 C19.1852253,46.4039682 19.1871898,51.6925543 19.1832607,56.9831854 C19.1812961,59.128478 18.3443933,59.9976385 16.2914274,59.9976385 C11.7965126,59.9996836 7.30159783,60.0017287 2.80668305,59.9976385 C0.853909755,59.9955935 0.00325499067,59.1182526 0.00325499067,57.0731691 C-0.000674130641,39.0273519 -0.000674130641,20.9794896 0.00129043002,2.93367235 C0.00325499067,0.931535555 0.899094651,0.00306762532 2.82043497,0.00306762532 C7.34285361,-0.00102254177 11.8652722,-0.00102254177 16.3876909,0.00306762532 C18.2540235,0.00511270887 19.177367,0.94585114 19.1812961,2.88254526 C19.1891544,9.04438198 19.1852253,15.2041736 19.1852253,21.3660104 C19.1852253,21.7075393 19.1852253,22.0511133 19.1852253,22.4764907 Z" id="Fill-1" fill="#FFFFFF" mask="url(#mask-5)"></path>
                </g>
            </g>
        </g>
    </g>
</svg>