<?xml version="1.0" encoding="UTF-8"?>
<svg width="108px" height="108px" viewBox="0 0 108 108" version="1.1" xmlns="http://www.w3.org/2000/svg" xmlns:xlink="http://www.w3.org/1999/xlink">
    <!-- Generator: Sketch 48.2 (47327) - http://www.bohemiancoding.com/sketch -->
    <title>Artboard 8</title>
    <desc>Created with Sketch.</desc>
    <defs>
        <linearGradient x1="94.3373843%" y1="73.7528935%" x2="35.546875%" y2="50%" id="linearGradient-1">
            <stop stop-color="#77ACFF" offset="0%"></stop>
            <stop stop-color="#A887FF" offset="100%"></stop>
        </linearGradient>
        <circle id="path-2" cx="51" cy="51" r="51"></circle>
        <filter x="-14.2%" y="-12.3%" width="128.4%" height="128.4%" filterUnits="objectBoundingBox" id="filter-3">
            <feOffset dx="0" dy="2" in="SourceAlpha" result="shadowOffsetOuter1"></feOffset>
            <feGaussianBlur stdDeviation="4.5" in="shadowOffsetOuter1" result="shadowBlurOuter1"></feGaussianBlur>
            <feColorMatrix values="0 0 0 0 0.584313725   0 0 0 0 0.584313725   0 0 0 0 1  0 0 0 0.698935688 0" type="matrix" in="shadowBlurOuter1"></feColorMatrix>
        </filter>
    </defs>
    <g id="Page-1" stroke="none" stroke-width="1" fill="none" fill-rule="evenodd">
        <g id="Artboard-8">
            <g id="Group-9" transform="translate(3.000000, 3.000000)">
                <g id="Group-22">
                    <g id="Oval-9">
                        <use fill="black" fill-opacity="1" filter="url(#filter-3)" xlink:href="#path-2"></use>
                        <use fill="url(#linearGradient-1)" fill-rule="evenodd" xlink:href="#path-2"></use>
                    </g>
                </g>
                <g id="motion-01" transform="translate(25.000000, 25.000000)" fill="#FFFFFF" fill-rule="nonzero">
                    <path d="M46.6834048,29.8261146 C43.8002378,31.5990987 40.9170708,33.2109026 38.0339038,34.9838868 C37.5251096,35.3062475 36.8467174,35.1450671 36.5075213,34.661526 C36.5075213,34.661526 25.3140494,18.2211271 23.2788728,15.4810606 C27.5188242,15.642241 31.9283737,15.4810606 36.3379232,15.1586999 C41.425865,14.6751587 41.425865,7.74440234 35.3203349,8.22794348 C28.7060106,8.71148462 24.126863,9.03384539 17.0037446,8.22794348 C15.8165582,8.0667631 14.2901757,7.90558272 13.4421854,8.0667631 C12.0854009,8.22794348 10.8982145,8.87266501 9.88062616,9.83974729 C7.33665529,12.257453 7.84544946,15.642241 9.88062616,18.2211271 C12.9333912,21.9282759 15.8165582,25.6354246 18.190931,29.8261146 C18.3605291,30.1484753 18.190931,30.6320165 17.8517349,30.6320165 C14.2901757,31.5990987 14.1205776,31.4379184 10.5590184,32.4050007 C9.54143004,32.7273614 8.86303781,33.2109026 8.35424364,33.8556241 C8.18464558,34.0168045 8.18464558,34.0168045 8.01504752,34.1779848 C5.13188053,38.3686748 2.58790966,42.5593647 0.383134907,47.0724153 C-1.65204179,51.2631053 4.96228248,54.3255325 7.50625335,49.6513014 C9.88062616,45.4606115 11.2374106,42.8817254 13.6117834,39.1745767 C13.7813815,39.0133963 13.9509796,38.8522159 14.2901757,38.6910355 C19.8869116,37.2404121 21.074098,36.9180513 26.6708339,35.4674279 C27.01003,35.4674279 27.5188242,35.1450671 28.0276184,35.3062475 C28.1972164,35.3062475 29.0452067,36.5956906 29.0452067,36.7568709 C30.5715892,38.8522159 31.2499815,40.141659 32.6067659,42.0758235 C32.9459621,42.720545 33.4547562,42.8817254 33.9635504,43.2040862 C34.4723446,43.526447 36.6771193,43.6876273 38.712296,42.5593647 C43.1218455,39.9804786 45.3266203,38.3686748 48.5489834,36.5956906 C54.9937096,32.7273614 51.2625523,27.2472285 46.6834048,29.8261146 Z" id="Shape"></path>
                    <circle id="Oval" cx="6.5" cy="6.5" r="6.5"></circle>
                </g>
            </g>
        </g>
    </g>
</svg>