<?xml version="1.0" encoding="UTF-8"?>
<svg width="35px" height="35px" viewBox="0 0 35 35" version="1.1" xmlns="http://www.w3.org/2000/svg" xmlns:xlink="http://www.w3.org/1999/xlink">
    <!-- Generator: Sketch 48.2 (47327) - http://www.bohemiancoding.com/sketch -->
    <title>Artboard 3</title>
    <desc>Created with Sketch.</desc>
    <defs></defs>
    <g id="Page-1" stroke="none" stroke-width="1" fill="none" fill-rule="evenodd">
        <g id="Artboard-3" fill-rule="nonzero">
            <g id="疏散指示-135px">
                <circle id="Oval-9" fill="#FFFFFF" cx="17.5" cy="17.5" r="17.5"></circle>
                <path d="M25.4158146,18.9859662 C24.7345431,19.4828976 24.1691614,20.1077654 23.6781368,20.7945812 C23.3364962,21.2719856 22.9164793,21.3756813 22.5627808,21.1326024 C22.2646826,20.927231 22.1508025,20.5844964 22.2968371,20.2720625 C22.3484181,20.1616333 22.4381825,20.0646711 22.527277,19.9784824 C22.9211685,19.5946736 23.3217588,19.2175982 23.7196696,18.8378294 C23.700243,18.8108955 23.6814862,18.7846349 23.6627295,18.7577009 L20.7011746,18.7577009 C20.2938854,18.7577009 19.962963,18.4250666 19.962963,18.0156705 C19.962963,17.605601 20.2938854,17.27364 20.7011746,17.27364 L23.705602,17.27364 C23.2855851,16.8514503 22.9104503,16.4797617 22.5413445,16.1026864 C22.170899,15.7242643 22.1340554,15.3020746 22.4381825,15.0010876 C22.8414523,14.6017918 23.3740097,14.7378082 23.8174726,15.4104837 C24.1993062,15.9888904 24.6568366,16.5093891 25.2248978,16.9039715 C26.443416,17.7510444 26.4970067,18.1974747 25.4158146,18.9859662 M20.1235133,24.773892 C19.5267624,23.6411366 19.1867145,22.9617516 18.5786286,21.9215481 C18.5432903,21.8618588 18.4832819,21.8196068 18.4166058,21.8008282 C16.9837369,21.3910511 16.6610247,21.3414218 15.2288226,20.932986 C15.1568124,20.912866 14.9981234,20.852506 14.8967757,20.8813447 C14.8507692,20.894758 14.6540748,21.2146658 14.6280711,21.2549058 C14.2553519,21.8222895 14.0479893,22.1817667 13.7046075,22.6740357 C13.597259,22.8276183 13.4732415,22.9094396 13.377228,22.9671169 C13.2278736,23.0576569 12.6757956,23.1019209 12.1710578,22.792073 C11.0582341,22.1093347 10.4934877,21.6539523 9.66337055,21.1576592 C8.04780923,20.1905584 9.03328163,18.6835712 10.186111,19.4125855 C10.9155472,19.8740039 11.6489841,20.330057 12.3810874,20.7874514 C12.5077719,20.86659 12.6737954,20.8290327 12.7551402,20.7036181 C12.7551402,20.7036181 15.61221,16.2537471 16.1489524,15.5146729 C15.0434631,15.5488769 13.9379738,15.5294275 12.8304842,15.4348636 C11.5102978,15.321521 11.5343012,13.406098 13.1111904,13.5429139 C14.8074298,13.6904605 15.9735944,13.7481378 17.780516,13.5482793 C18.0858924,13.5140753 18.4692799,13.454386 18.6819765,13.4952966 C19.0293589,13.5529739 19.3447368,13.7300298 19.5741024,13.9634217 C20.2335288,14.6347587 20.0968429,15.5381462 19.5607672,16.2135072 C18.7746563,17.2020693 18.0538879,18.2402608 17.421132,19.3341175 C17.3697914,19.4219748 17.4164646,19.5353174 17.5131449,19.5634854 C18.4339416,19.8263866 18.460612,19.7901706 19.3814086,20.0530718 C19.6414453,20.1275157 19.8168034,20.2764037 19.9261521,20.4574836 C19.9541561,20.4903462 19.9828268,20.5205262 20.0081637,20.5587542 C20.7416005,21.6774256 21.3936925,22.8390196 21.9424367,24.0616443 C22.4518419,25.1957411 20.768271,26.0434632 20.1235133,24.773892 M20.6111111,10.8888889 C21.3987779,10.8888889 22.037037,11.5276565 22.037037,12.3151424 C22.037037,13.1026282 21.3987779,13.7407407 20.6111111,13.7407407 C19.8234443,13.7407407 19.1851852,13.1026282 19.1851852,12.3151424 C19.1851852,11.5276565 19.8234443,10.8888889 20.6111111,10.8888889 M26.2486135,7.77777778 L9.00997349,7.77777778 C8.32497216,7.77777778 7.77777778,8.32967777 7.77777778,9.00997349 L7.77777778,26.2486135 C7.77777778,26.9336148 8.32967777,27.4814815 9.00997349,27.4814815 L26.2486135,27.4814815 C26.9336148,27.4814815 27.4814815,26.9295815 27.4814815,26.2486135 L27.4814815,9.00997349 C27.4814815,8.32497216 26.9295815,7.77777778 26.2486135,7.77777778" id="Fill-3" fill="#83D9FF"></path>
            </g>
        </g>
    </g>
</svg>